<svg width="356" height="356" viewBox="0 0 356 356" fill="none" xmlns="http://www.w3.org/2000/svg">
<rect x="3" y="3" width="350" height="350" rx="7" fill="#3D9754" stroke="black" stroke-width="6"/>
<line x1="177.523" y1="1.00432" x2="176.5" y2="356.004" stroke="black" stroke-width="3"/>
<line x1="118.523" y1="0.00432275" x2="117.5" y2="355.004" stroke="black" stroke-width="3"/>
<line x1="60.5231" y1="1.00432" x2="59.5" y2="356.004" stroke="black" stroke-width="3"/>
<line x1="31.5231" y1="1.00432" x2="30.5" y2="356.004" stroke="black" stroke-width="3"/>
<line x1="89.5231" y1="1.00432" x2="88.5" y2="356.004" stroke="black" stroke-width="3"/>
<line x1="147.523" y1="1.00432" x2="146.5" y2="356.004" stroke="black" stroke-width="3"/>
<line x1="206.523" y1="0.00432275" x2="205.5" y2="355.004" stroke="black" stroke-width="3"/>
<line x1="264.523" y1="1.00432" x2="263.5" y2="356.004" stroke="black" stroke-width="3"/>
<line x1="322.523" y1="1.00432" x2="321.5" y2="356.004" stroke="black" stroke-width="3"/>
<line x1="293.523" y1="0.00432275" x2="292.5" y2="355.004" stroke="black" stroke-width="3"/>
<line x1="235.523" y1="1.00432" x2="234.5" y2="356.004" stroke="black" stroke-width="3"/>
<line x1="0.995714" y1="177.5" x2="350.996" y2="176.5" stroke="black" stroke-width="3"/>
<line x1="0.995714" y1="235.5" x2="350.996" y2="234.5" stroke="black" stroke-width="3"/>
<line x1="0.995714" y1="295.5" x2="350.996" y2="294.5" stroke="black" stroke-width="3"/>
<line x1="0.995714" y1="59.5" x2="350.996" y2="58.5" stroke="black" stroke-width="3"/>
<line x1="2.99571" y1="89.5" x2="352.996" y2="88.5" stroke="black" stroke-width="3"/>
<line x1="5.99571" y1="148.5" x2="355.996" y2="147.5" stroke="black" stroke-width="3"/>
<line x1="5.99571" y1="207.5" x2="355.996" y2="206.5" stroke="black" stroke-width="3"/>
<line x1="5.99571" y1="265.5" x2="355.996" y2="264.5" stroke="black" stroke-width="3"/>
<line x1="5.99571" y1="324.5" x2="355.996" y2="323.5" stroke="black" stroke-width="3"/>
<line x1="0.995714" y1="33.5" x2="350.996" y2="32.5" stroke="black" stroke-width="3"/>
<line x1="0.995714" y1="119.5" x2="350.996" y2="118.5" stroke="black" stroke-width="3"/>
<circle cx="162" cy="163" r="10" fill="#D9D9D9"/>
<circle cx="192" cy="162" r="10" fill="black"/>
<circle cx="162" cy="192" r="10" fill="black"/>
<circle cx="192" cy="192" r="10" fill="#D9D9D9"/>
</svg>
