<svg width="356" height="356" viewBox="0 0 356 356" fill="none" xmlns="http://www.w3.org/2000/svg">
<rect x="3" y="3" width="350" height="350" rx="7" fill="#3D9754" stroke="black" stroke-width="6"/>
<line x1="180.5" y1="1.00432" x2="179.477" y2="356.004" stroke="black" stroke-width="3"/>
<line x1="265.523" y1="0.00432275" x2="264.5" y2="355.004" stroke="black" stroke-width="3"/>
<line x1="95.5231" y1="0.00432275" x2="94.5" y2="355.004" stroke="black" stroke-width="3"/>
<line x1="50.5231" y1="0.00432275" x2="49.5" y2="355.004" stroke="black" stroke-width="3"/>
<line x1="137.523" y1="1.00432" x2="136.5" y2="356.004" stroke="black" stroke-width="3"/>
<line x1="222.523" y1="1.00432" x2="221.5" y2="356.004" stroke="black" stroke-width="3"/>
<line x1="308.523" y1="1.00432" x2="307.5" y2="356.004" stroke="black" stroke-width="3"/>
<line x1="0.995714" y1="177.5" x2="350.996" y2="176.5" stroke="black" stroke-width="3"/>
<line x1="0.995665" y1="265.5" x2="350.996" y2="264.488" stroke="black" stroke-width="3"/>
<line x1="0.995714" y1="88.5" x2="350.996" y2="87.5" stroke="black" stroke-width="3"/>
<line x1="0.995714" y1="47.5" x2="350.996" y2="46.5" stroke="black" stroke-width="3"/>
<line x1="0.995714" y1="133.5" x2="350.996" y2="132.5" stroke="black" stroke-width="3"/>
<line x1="0.995787" y1="222.5" x2="350.996" y2="221.517" stroke="black" stroke-width="3"/>
<line x1="0.995787" y1="310.5" x2="350.996" y2="309.517" stroke="black" stroke-width="3"/>
<circle cx="159" cy="156" r="16" fill="#F0F0F0"/>
<circle cx="201" cy="156" r="16" fill="black"/>
<circle cx="158" cy="200" r="16" fill="black"/>
<circle cx="200" cy="199" r="16" fill="#F0F0F0"/>
</svg>
