<svg width="189" height="169" viewBox="0 0 189 169" fill="none" xmlns="http://www.w3.org/2000/svg">
<circle cx="94.5" cy="84.5" r="81.5" fill="#A4A4A4" stroke="#A4A4A4" stroke-width="6"/>
<mask id="path-2-outside-1_478_62" maskUnits="userSpaceOnUse" x="65" y="39" width="58" height="88" fill="black">
<rect fill="white" x="65" y="39" width="58" height="88"/>
<path d="M89.06 97.864C88.484 94.912 88.592 92.248 89.384 89.872C90.248 87.496 91.508 85.372 93.164 83.5C94.892 81.556 96.764 79.792 98.78 78.208C100.868 76.552 102.848 74.932 104.72 73.348C106.592 71.764 108.14 70.144 109.364 68.488C110.588 66.76 111.2 64.888 111.2 62.872C111.2 60.352 110.588 58.12 109.364 56.176C108.14 54.232 106.34 52.72 103.964 51.64C101.588 50.488 98.528 49.912 94.784 49.912C91.112 49.912 87.548 50.74 84.092 52.396C80.708 53.98 77.468 56.428 74.372 59.74L68.54 54.34C72.14 50.524 76.136 47.5 80.528 45.268C84.92 42.964 90.032 41.812 95.864 41.812C100.976 41.812 105.368 42.64 109.04 44.296C112.784 45.952 115.664 48.292 117.68 51.316C119.768 54.268 120.812 57.832 120.812 62.008C120.812 64.744 120.2 67.156 118.976 69.244C117.752 71.332 116.168 73.24 114.224 74.968C112.352 76.696 110.372 78.388 108.284 80.044C106.196 81.628 104.252 83.284 102.452 85.012C100.724 86.74 99.392 88.648 98.456 90.736C97.592 92.824 97.412 95.2 97.916 97.864H89.06ZM93.704 124.54C91.76 124.54 90.104 123.892 88.736 122.596C87.368 121.3 86.684 119.572 86.684 117.412C86.684 115.252 87.368 113.524 88.736 112.228C90.104 110.86 91.76 110.176 93.704 110.176C95.576 110.176 97.196 110.86 98.564 112.228C99.932 113.524 100.616 115.252 100.616 117.412C100.616 119.572 99.932 121.3 98.564 122.596C97.196 123.892 95.576 124.54 93.704 124.54Z"/>
</mask>
<path d="M89.06 97.864C88.484 94.912 88.592 92.248 89.384 89.872C90.248 87.496 91.508 85.372 93.164 83.5C94.892 81.556 96.764 79.792 98.78 78.208C100.868 76.552 102.848 74.932 104.72 73.348C106.592 71.764 108.14 70.144 109.364 68.488C110.588 66.76 111.2 64.888 111.2 62.872C111.2 60.352 110.588 58.12 109.364 56.176C108.14 54.232 106.34 52.72 103.964 51.64C101.588 50.488 98.528 49.912 94.784 49.912C91.112 49.912 87.548 50.74 84.092 52.396C80.708 53.98 77.468 56.428 74.372 59.74L68.54 54.34C72.14 50.524 76.136 47.5 80.528 45.268C84.92 42.964 90.032 41.812 95.864 41.812C100.976 41.812 105.368 42.64 109.04 44.296C112.784 45.952 115.664 48.292 117.68 51.316C119.768 54.268 120.812 57.832 120.812 62.008C120.812 64.744 120.2 67.156 118.976 69.244C117.752 71.332 116.168 73.24 114.224 74.968C112.352 76.696 110.372 78.388 108.284 80.044C106.196 81.628 104.252 83.284 102.452 85.012C100.724 86.74 99.392 88.648 98.456 90.736C97.592 92.824 97.412 95.2 97.916 97.864H89.06ZM93.704 124.54C91.76 124.54 90.104 123.892 88.736 122.596C87.368 121.3 86.684 119.572 86.684 117.412C86.684 115.252 87.368 113.524 88.736 112.228C90.104 110.86 91.76 110.176 93.704 110.176C95.576 110.176 97.196 110.86 98.564 112.228C99.932 113.524 100.616 115.252 100.616 117.412C100.616 119.572 99.932 121.3 98.564 122.596C97.196 123.892 95.576 124.54 93.704 124.54Z" fill="black"/>
<path d="M89.06 97.864L87.097 98.247L87.4125 99.864H89.06V97.864ZM89.384 89.872L87.5044 89.1885L87.4952 89.2139L87.4866 89.2395L89.384 89.872ZM93.164 83.5L91.6692 82.1713L91.666 82.1748L93.164 83.5ZM98.78 78.208L100.016 79.7806L100.023 79.775L98.78 78.208ZM104.72 73.348L106.012 74.8748L106.012 74.8748L104.72 73.348ZM109.364 68.488L110.972 69.6768L110.984 69.6605L110.996 69.644L109.364 68.488ZM109.364 56.176L107.672 57.2416L107.672 57.2416L109.364 56.176ZM103.964 51.64L103.091 53.4396L103.114 53.4505L103.136 53.4607L103.964 51.64ZM84.092 52.396L84.9399 54.2074L84.9481 54.2035L84.9562 54.1996L84.092 52.396ZM74.372 59.74L73.0132 61.2075L74.4738 62.5599L75.8331 61.1058L74.372 59.74ZM68.54 54.34L67.0852 52.9676L65.6999 54.436L67.1812 55.8075L68.54 54.34ZM80.528 45.268L81.4341 47.051L81.4456 47.0451L81.4571 47.0391L80.528 45.268ZM109.04 44.296L108.218 46.1192L108.224 46.1221L108.231 46.1251L109.04 44.296ZM117.68 51.316L116.016 52.4254L116.031 52.4484L116.047 52.4709L117.68 51.316ZM118.976 69.244L120.701 70.2554L120.701 70.2554L118.976 69.244ZM114.224 74.968L112.895 73.4732L112.881 73.4857L112.867 73.4984L114.224 74.968ZM108.284 80.044L109.493 81.6374L109.51 81.6244L109.527 81.611L108.284 80.044ZM102.452 85.012L101.067 83.5692L101.052 83.5834L101.038 83.5978L102.452 85.012ZM98.456 90.736L96.631 89.9179L96.6191 89.9444L96.608 89.9713L98.456 90.736ZM97.916 97.864V99.864H100.33L99.8811 97.4922L97.916 97.864ZM88.736 122.596L90.1115 121.144L90.1115 121.144L88.736 122.596ZM88.736 112.228L90.1115 113.68L90.1311 113.661L90.1502 113.642L88.736 112.228ZM98.564 112.228L97.1498 113.642L97.1689 113.661L97.1885 113.68L98.564 112.228ZM98.564 122.596L99.9395 124.048L99.9395 124.048L98.564 122.596ZM89.06 97.864L91.023 97.481C90.4998 94.7995 90.6184 92.4934 91.2814 90.5045L89.384 89.872L87.4866 89.2395C86.5656 92.0026 86.4682 95.0245 87.097 98.247L89.06 97.864ZM89.384 89.872L91.2636 90.5555C92.0428 88.4126 93.1743 86.5069 94.662 84.8251L93.164 83.5L91.666 82.1748C89.8417 84.2371 88.4532 86.5794 87.5044 89.1885L89.384 89.872ZM93.164 83.5L94.6588 84.8287C96.309 82.9723 98.0945 81.2901 100.016 79.7806L98.78 78.208L97.5444 76.6354C95.4335 78.2939 93.475 80.1397 91.6692 82.1713L93.164 83.5ZM98.78 78.208L100.023 79.775C102.126 78.107 104.122 76.4736 106.012 74.8748L104.72 73.348L103.428 71.8212C101.574 73.3904 99.61 74.997 97.5372 76.641L98.78 78.208ZM104.72 73.348L106.012 74.8748C107.98 73.2091 109.641 71.4783 110.972 69.6768L109.364 68.488L107.756 67.2992C106.639 68.8097 105.204 70.3189 103.428 71.8212L104.72 73.348ZM109.364 68.488L110.996 69.644C112.447 67.5962 113.2 65.3238 113.2 62.872H111.2H109.2C109.2 64.4522 108.729 65.9238 107.732 67.332L109.364 68.488ZM111.2 62.872H113.2C113.2 60.0128 112.501 57.4041 111.056 55.1104L109.364 56.176L107.672 57.2416C108.675 58.8359 109.2 60.6912 109.2 62.872H111.2ZM109.364 56.176L111.056 55.1104C109.597 52.792 107.474 51.0383 104.792 49.8193L103.964 51.64L103.136 53.4607C105.206 54.4017 106.683 55.672 107.672 57.2416L109.364 56.176ZM103.964 51.64L104.837 49.8404C102.099 48.5133 98.7124 47.912 94.784 47.912V49.912V51.912C98.3436 51.912 101.077 52.4627 103.091 53.4396L103.964 51.64ZM94.784 49.912V47.912C90.7997 47.912 86.9414 48.8129 83.2278 50.5924L84.092 52.396L84.9562 54.1996C88.1546 52.6671 91.4243 51.912 94.784 51.912V49.912ZM84.092 52.396L83.2441 50.5846C79.5856 52.2971 76.1449 54.9147 72.9109 58.3742L74.372 59.74L75.8331 61.1058C78.7911 57.9413 81.8304 55.6629 84.9399 54.2074L84.092 52.396ZM74.372 59.74L75.7308 58.2725L69.8988 52.8725L68.54 54.34L67.1812 55.8075L73.0132 61.2075L74.372 59.74ZM68.54 54.34L69.9948 55.7124C73.4472 52.0529 77.2602 49.1721 81.4341 47.051L80.528 45.268L79.6219 43.485C75.0118 45.8279 70.8328 48.9951 67.0852 52.9676L68.54 54.34ZM80.528 45.268L81.4571 47.0391C85.516 44.9098 90.2988 43.812 95.864 43.812V41.812V39.812C89.7652 39.812 84.324 41.0182 79.5989 43.4969L80.528 45.268ZM95.864 41.812V43.812C100.766 43.812 104.864 44.6066 108.218 46.1192L109.04 44.296L109.862 42.4728C105.872 40.6734 101.186 39.812 95.864 39.812V41.812ZM109.04 44.296L108.231 46.1251C111.673 47.6473 114.237 49.7565 116.016 52.4254L117.68 51.316L119.344 50.2066C117.091 46.8275 113.895 44.2567 109.849 42.4669L109.04 44.296ZM117.68 51.316L116.047 52.4709C117.861 55.0349 118.812 58.1794 118.812 62.008H120.812H122.812C122.812 57.4846 121.675 53.5011 119.313 50.1611L117.68 51.316ZM120.812 62.008H118.812C118.812 64.4358 118.272 66.4897 117.251 68.2326L118.976 69.244L120.701 70.2554C122.128 67.8223 122.812 65.0522 122.812 62.008H120.812ZM118.976 69.244L117.251 68.2326C116.14 70.1266 114.694 71.8741 112.895 73.4732L114.224 74.968L115.553 76.4628C117.642 74.6059 119.364 72.5374 120.701 70.2554L118.976 69.244ZM114.224 74.968L112.867 73.4984C111.034 75.191 109.092 76.8506 107.041 78.477L108.284 80.044L109.527 81.611C111.652 79.9254 113.67 78.201 115.581 76.4376L114.224 74.968ZM108.284 80.044L107.075 78.4506C104.929 80.079 102.925 81.785 101.067 83.5692L102.452 85.012L103.837 86.4548C105.579 84.7829 107.463 83.177 109.493 81.6374L108.284 80.044ZM102.452 85.012L101.038 83.5978C99.1495 85.4861 97.6731 87.5931 96.631 89.9179L98.456 90.736L100.281 91.5541C101.111 89.7029 102.298 87.9939 103.866 86.4262L102.452 85.012ZM98.456 90.736L96.608 89.9713C95.5678 92.4851 95.3892 95.267 95.9509 98.2358L97.916 97.864L99.8811 97.4922C99.4348 95.133 99.6162 93.1629 100.304 91.5007L98.456 90.736ZM97.916 97.864V95.864H89.06V97.864V99.864H97.916V97.864ZM93.704 124.54V122.54C92.2538 122.54 91.0952 122.076 90.1115 121.144L88.736 122.596L87.3605 124.048C89.1128 125.708 91.2662 126.54 93.704 126.54V124.54ZM88.736 122.596L90.1115 121.144C89.2018 120.282 88.684 119.111 88.684 117.412H86.684H84.684C84.684 120.033 85.5342 122.318 87.3605 124.048L88.736 122.596ZM86.684 117.412H88.684C88.684 115.713 89.2018 114.542 90.1115 113.68L88.736 112.228L87.3605 110.776C85.5342 112.506 84.684 114.791 84.684 117.412H86.684ZM88.736 112.228L90.1502 113.642C91.1411 112.651 92.2875 112.176 93.704 112.176V110.176V108.176C91.2325 108.176 89.0669 109.069 87.3218 110.814L88.736 112.228ZM93.704 110.176V112.176C95.0261 112.176 96.1428 112.635 97.1498 113.642L98.564 112.228L99.9782 110.814C98.2492 109.085 96.1259 108.176 93.704 108.176V110.176ZM98.564 112.228L97.1885 113.68C98.0982 114.542 98.616 115.713 98.616 117.412H100.616H102.616C102.616 114.791 101.766 112.506 99.9395 110.776L98.564 112.228ZM100.616 117.412H98.616C98.616 119.111 98.0982 120.282 97.1885 121.144L98.564 122.596L99.9395 124.048C101.766 122.318 102.616 120.033 102.616 117.412H100.616ZM98.564 122.596L97.1885 121.144C96.1893 122.091 95.0605 122.54 93.704 122.54V124.54V126.54C96.0915 126.54 98.2027 125.693 99.9395 124.048L98.564 122.596Z" fill="#F0F0F0" mask="url(#path-2-outside-1_478_62)"/>
</svg>
