<svg width="464" height="464" viewBox="0 0 464 464" fill="none" xmlns="http://www.w3.org/2000/svg">
<rect width="464" height="464" fill="#FAFAFA"/>
<circle cx="232" cy="213" r="168" fill="#3D9754"/>
<g filter="url(#filter0_di_405_49)">
<circle cx="232.5" cy="212.5" r="82.5" fill="black"/>
</g>
<rect x="64" y="333" width="336" height="122" fill="#FAFAFA"/>
<path d="M50.0156 412V393.297L55.6406 392.219V363.953L50.0156 362.875V346H106.922C111.016 346.969 114.344 348.578 116.906 350.828C119.469 353.078 120.75 356.547 120.75 361.234C120.75 362.859 120.578 364.625 120.234 366.531C119.922 368.438 119.312 370.25 118.406 371.969C117.5 373.656 116.203 375.078 114.516 376.234C112.828 377.359 110.625 377.984 107.906 378.109C111.031 378.266 113.906 378.828 116.531 379.797C119.156 380.734 121.266 382.203 122.859 384.203C124.453 386.203 125.25 388.875 125.25 392.219C125.25 397.094 124.281 400.984 122.344 403.891C120.438 406.766 117.688 408.844 114.094 410.125C110.5 411.375 106.188 412 101.156 412H50.0156ZM83.8594 373.469H87.9844C90.8906 373.469 93.125 373.062 94.6875 372.25C96.25 371.406 97.0312 369.5 97.0312 366.531C97.0312 363.719 96.2188 361.953 94.5938 361.234C92.9688 360.516 90.7656 360.156 87.9844 360.156H83.8594V373.469ZM83.8594 395.969H87.9844C90.8906 395.969 93.125 395.547 94.6875 394.703C96.25 393.859 97.0312 391.953 97.0312 388.984C97.0312 386.172 96.2188 384.422 94.5938 383.734C92.9688 383.016 90.7656 382.656 87.9844 382.656H83.8594V395.969ZM130.172 412V393.297L135.797 392.219V365.547L130.172 364.469V346H169.641V364.469L163.969 365.547V394C166.719 394 169.078 393.375 171.047 392.125C173.047 390.875 174.688 389.5 175.969 388H183.797V412H130.172ZM188.953 412V390.25L194.391 389.172L207.375 346H243.75L256.828 389.172L262.219 390.25V412H237.141L234.797 400.891H216.375L214.031 412H188.953ZM219.234 386.078H231.938L225.562 360.156L219.234 386.078ZM303.75 412.844C296 412.844 289.266 411.578 283.547 409.047C277.859 406.484 273.469 402.641 270.375 397.516C267.281 392.359 265.734 385.891 265.734 378.109C265.734 370.328 267.25 363.938 270.281 358.938C273.344 353.938 277.688 350.234 283.312 347.828C288.969 345.422 295.672 344.219 303.422 344.219C309.016 344.219 314.047 344.719 318.516 345.719C323.016 346.688 327.109 348 330.797 349.656V370.047H317.531C316.344 368.391 314.891 366.969 313.172 365.781C311.484 364.594 309.391 364 306.891 364C302.953 364 299.812 365.359 297.469 368.078C295.156 370.766 294 374.109 294 378.109C294 382.953 295.234 386.547 297.703 388.891C300.172 391.203 303.797 392.359 308.578 392.359C312.547 392.359 316.312 391.938 319.875 391.094C323.469 390.25 327.109 389.281 330.797 388.188V408.578C321.484 411.422 312.469 412.844 303.75 412.844ZM337.453 412V393.297L343.078 392.219V365.547L337.453 364.469V346H371.297V372.344L383.766 346H414.141V357.906C410.859 360.688 407.859 363.812 405.141 367.281C402.422 370.719 399.922 374.297 397.641 378.016C400.328 382.266 403.109 386.516 405.984 390.766C408.891 394.984 412.031 398.875 415.406 402.438V412H383.766L371.297 384.344V412H337.453Z" fill="black"/>
<defs>
<filter id="filter0_di_405_49" x="140" y="124" width="185" height="185" filterUnits="userSpaceOnUse" color-interpolation-filters="sRGB">
<feFlood flood-opacity="0" result="BackgroundImageFix"/>
<feColorMatrix in="SourceAlpha" type="matrix" values="0 0 0 0 0 0 0 0 0 0 0 0 0 0 0 0 0 0 127 0" result="hardAlpha"/>
<feMorphology radius="6" operator="dilate" in="SourceAlpha" result="effect1_dropShadow_405_49"/>
<feOffset dy="4"/>
<feGaussianBlur stdDeviation="2"/>
<feComposite in2="hardAlpha" operator="out"/>
<feColorMatrix type="matrix" values="0 0 0 0 0 0 0 0 0 0 0 0 0 0 0 0 0 0 0.25 0"/>
<feBlend mode="normal" in2="BackgroundImageFix" result="effect1_dropShadow_405_49"/>
<feBlend mode="normal" in="SourceGraphic" in2="effect1_dropShadow_405_49" result="shape"/>
<feColorMatrix in="SourceAlpha" type="matrix" values="0 0 0 0 0 0 0 0 0 0 0 0 0 0 0 0 0 0 127 0" result="hardAlpha"/>
<feMorphology radius="8" operator="erode" in="SourceAlpha" result="effect2_innerShadow_405_49"/>
<feOffset dx="2" dy="4"/>
<feGaussianBlur stdDeviation="2"/>
<feComposite in2="hardAlpha" operator="arithmetic" k2="-1" k3="1"/>
<feColorMatrix type="matrix" values="0 0 0 0 1 0 0 0 0 1 0 0 0 0 1 0 0 0 0.25 0"/>
<feBlend mode="normal" in2="shape" result="effect2_innerShadow_405_49"/>
</filter>
</defs>
</svg>
