<svg width="469" height="464" viewBox="0 0 469 464" fill="none" xmlns="http://www.w3.org/2000/svg">
<rect width="464" height="464" fill="#FAFAFA"/>
<circle cx="232" cy="213" r="168" fill="#3D9754"/>
<g filter="url(#filter0_di_404_48)">
<circle cx="232.5" cy="212.5" r="82.5" fill="#F0F0F0"/>
</g>
<rect x="5" y="333" width="464" height="122" fill="#FAFAFA"/>
<path d="M44.0625 412.844C38.25 412.844 32.875 412.469 27.9375 411.719C23.0312 410.938 18.5312 409.484 14.4375 407.359V388.844H28.5469C29.8594 390.656 31.4688 392.203 33.375 393.484C35.3125 394.766 37.6406 395.406 40.3594 395.406C42.5469 395.406 44.0938 394.828 45 393.672C45.9062 392.484 46.3594 390.75 46.3594 388.469C42.1406 388.094 38.0781 387.438 34.1719 386.5C30.2969 385.562 26.8281 384.188 23.7656 382.375C20.7031 380.531 18.2812 378.094 16.5 375.062C14.7188 372 13.8281 368.172 13.8281 363.578C13.8281 357.422 15.1875 352.578 17.9062 349.047C20.6562 345.516 24.4219 343 29.2031 341.5C34.0156 340 39.5 339.25 45.6562 339.25C51.75 339.25 57.1406 339.719 61.8281 340.656C66.5156 341.594 70.8438 342.984 74.8125 344.828V363.109H60.7031C59.4531 361.328 57.9062 359.797 56.0625 358.516C54.2188 357.203 51.9844 356.547 49.3594 356.547C47.1719 356.547 45.5938 357.219 44.625 358.562C43.6562 359.875 43.1719 361.688 43.1719 364C47.9531 364.156 52.3594 364.656 56.3906 365.5C60.4531 366.344 63.9688 367.719 66.9375 369.625C69.9375 371.5 72.25 374.047 73.875 377.266C75.5312 380.453 76.3594 384.5 76.3594 389.406C76.3594 393.875 75.5312 397.625 73.875 400.656C72.2188 403.656 69.9219 406.047 66.9844 407.828C64.0469 409.609 60.625 410.891 56.7188 411.672C52.8125 412.453 48.5938 412.844 44.0625 412.844ZM81.4688 412V393.297L87.0938 392.219V365.641L81.4688 364.562V346H139.406V370H132.984C130.891 368.438 128.328 367.188 125.297 366.25C122.266 365.312 118.938 364.844 115.312 364.844V375.016L128.297 372.25V385.609L115.312 382.797V393.156C118.969 393.156 122.312 392.703 125.344 391.797C128.406 390.891 130.953 389.625 132.984 388H139.406V412H81.4688ZM182.578 412.844C174.828 412.844 168.094 411.578 162.375 409.047C156.688 406.484 152.297 402.641 149.203 397.516C146.109 392.359 144.562 385.891 144.562 378.109C144.562 370.328 146.078 363.938 149.109 358.938C152.172 353.938 156.516 350.234 162.141 347.828C167.797 345.422 174.5 344.219 182.25 344.219C187.844 344.219 192.875 344.719 197.344 345.719C201.844 346.688 205.938 348 209.625 349.656V370.047H196.359C195.172 368.391 193.719 366.969 192 365.781C190.312 364.594 188.219 364 185.719 364C181.781 364 178.641 365.359 176.297 368.078C173.984 370.766 172.828 374.109 172.828 378.109C172.828 382.953 174.062 386.547 176.531 388.891C179 391.203 182.625 392.359 187.406 392.359C191.375 392.359 195.141 391.938 198.703 391.094C202.297 390.25 205.938 389.281 209.625 388.188V408.578C200.312 411.422 191.297 412.844 182.578 412.844ZM253.734 412.844C245.734 412.844 238.781 411.625 232.875 409.188C226.969 406.75 222.391 402.969 219.141 397.844C215.922 392.719 214.312 386.141 214.312 378.109C214.312 370.234 215.969 363.812 219.281 358.844C222.594 353.844 227.203 350.156 233.109 347.781C239.047 345.406 245.922 344.219 253.734 344.219C261.547 344.219 268.422 345.406 274.359 347.781C280.297 350.156 284.922 353.844 288.234 358.844C291.578 363.812 293.25 370.234 293.25 378.109C293.25 386.141 291.641 392.719 288.422 397.844C285.203 402.969 280.641 406.75 274.734 409.188C268.828 411.625 261.828 412.844 253.734 412.844ZM253.734 392.406C258.109 392.406 261.094 391.094 262.688 388.469C264.281 385.844 265.078 382.391 265.078 378.109C265.078 373.828 264.266 370.438 262.641 367.938C261.047 365.438 258.078 364.188 253.734 364.188C249.484 364.188 246.547 365.406 244.922 367.844C243.328 370.281 242.531 373.625 242.531 377.875C242.531 382.219 243.281 385.734 244.781 388.422C246.312 391.078 249.297 392.406 253.734 392.406ZM297.188 412V393.297L302.812 392.219V365.547L297.188 364.469V346H331.031L353.578 381.578V365.641L347.953 364.469V346H376.125V364.469L370.5 365.547V392.219L376.125 393.297V412H342.281L319.734 377.359V392.219L325.406 393.25V412H297.188ZM382.406 412V393.297L388.031 392.219V363.953L382.406 362.875V346H433.734C439.203 347.156 444 349 448.125 351.531C452.281 354.031 455.516 357.438 457.828 361.75C460.172 366.031 461.344 371.484 461.344 378.109C461.344 384.641 460.234 390.094 458.016 394.469C455.797 398.812 452.656 402.281 448.594 404.875C444.562 407.438 439.797 409.266 434.297 410.359C428.797 411.453 422.781 412 416.25 412H382.406ZM416.25 392.219H420.562C424 392.219 426.625 391.766 428.438 390.859C430.25 389.953 431.484 388.469 432.141 386.406C432.797 384.344 433.125 381.578 433.125 378.109C433.125 374.703 432.797 371.969 432.141 369.906C431.484 367.844 430.25 366.344 428.438 365.406C426.656 364.438 424.031 363.953 420.562 363.953H416.25V392.219Z" fill="#A4A4A4"/>
<defs>
<filter id="filter0_di_404_48" x="140" y="124" width="185" height="185" filterUnits="userSpaceOnUse" color-interpolation-filters="sRGB">
<feFlood flood-opacity="0" result="BackgroundImageFix"/>
<feColorMatrix in="SourceAlpha" type="matrix" values="0 0 0 0 0 0 0 0 0 0 0 0 0 0 0 0 0 0 127 0" result="hardAlpha"/>
<feMorphology radius="6" operator="dilate" in="SourceAlpha" result="effect1_dropShadow_404_48"/>
<feOffset dy="4"/>
<feGaussianBlur stdDeviation="2"/>
<feComposite in2="hardAlpha" operator="out"/>
<feColorMatrix type="matrix" values="0 0 0 0 0 0 0 0 0 0 0 0 0 0 0 0 0 0 0.25 0"/>
<feBlend mode="normal" in2="BackgroundImageFix" result="effect1_dropShadow_404_48"/>
<feBlend mode="normal" in="SourceGraphic" in2="effect1_dropShadow_404_48" result="shape"/>
<feColorMatrix in="SourceAlpha" type="matrix" values="0 0 0 0 0 0 0 0 0 0 0 0 0 0 0 0 0 0 127 0" result="hardAlpha"/>
<feMorphology radius="8" operator="erode" in="SourceAlpha" result="effect2_innerShadow_404_48"/>
<feOffset dx="2" dy="4"/>
<feGaussianBlur stdDeviation="2"/>
<feComposite in2="hardAlpha" operator="arithmetic" k2="-1" k3="1"/>
<feColorMatrix type="matrix" values="0 0 0 0 1 0 0 0 0 1 0 0 0 0 1 0 0 0 0.25 0"/>
<feBlend mode="normal" in2="shape" result="effect2_innerShadow_404_48"/>
</filter>
</defs>
</svg>
