<svg width="464" height="464" viewBox="0 0 464 464" fill="none" xmlns="http://www.w3.org/2000/svg">
<rect width="464" height="464" fill="#FAFAFA"/>
<circle cx="232" cy="213" r="168" fill="#3D9754"/>
<g filter="url(#filter0_di_404_47)">
<circle cx="232.5" cy="212.5" r="82.5" fill="black"/>
</g>
<rect x="64" y="333" width="336" height="122" fill="#FAFAFA"/>
<path d="M72.8594 412V391.656L80.2656 390.484V361.609L72.8594 360.438V340H132.25V364H124.375C122.688 362.438 120.719 361.047 118.469 359.828C116.25 358.609 113.516 358 110.266 358V370.797L123.016 367.75V384.344L110.266 381.297V390.484L117.672 391.844V412H72.8594ZM138.953 412V393.297L144.578 392.219V365.547L138.953 364.469V346H178.422V364.469L172.797 365.547V392.219L178.422 393.297V412H138.953ZM184.797 412V393.297L190.422 392.219V365.547L184.797 364.469V346H223.188C227.25 346 231.203 346.141 235.047 346.422C238.891 346.703 242.406 347.328 245.594 348.297C248.781 349.266 251.422 350.734 253.516 352.703C255.641 354.672 257 357.344 257.594 360.719C257.906 362.469 258.062 364.391 258.062 366.484C258.062 370.016 257.484 372.875 256.328 375.062C255.203 377.25 253.641 379.016 251.641 380.359C249.641 381.703 247.312 382.891 244.656 383.922C246.219 387.016 248.297 390.047 250.891 393.016C253.484 395.953 255.875 398.672 258.062 401.172V412H230.031C228.125 408.438 226.266 404.719 224.453 400.844C222.672 396.938 221.25 392.766 220.188 388.328H218.641V412H184.797ZM218.641 375.625C222.234 375.625 225.016 375.109 226.984 374.078C228.953 373.047 229.938 370.734 229.938 367.141C229.938 363.547 228.938 361.219 226.938 360.156C224.969 359.094 222.203 358.562 218.641 358.562V375.625ZM291.344 412.844C285.719 412.844 280.781 412.469 276.531 411.719C272.312 410.969 268.438 409.703 264.906 407.922V391.656H278.172C279.203 393.281 280.5 394.688 282.062 395.875C283.656 397.062 285.594 397.656 287.875 397.656C290.094 397.656 291.578 396.953 292.328 395.547C293.109 394.141 293.5 392.25 293.5 389.875C289.625 389.531 285.859 388.953 282.203 388.141C278.547 387.328 275.266 386.109 272.359 384.484C269.484 382.859 267.188 380.672 265.469 377.922C263.781 375.172 262.938 371.688 262.938 367.469C262.938 361.656 264.219 357.062 266.781 353.688C269.375 350.281 272.922 347.859 277.422 346.422C281.953 344.953 287.094 344.219 292.844 344.219C298.312 344.219 303.188 344.719 307.469 345.719C311.781 346.688 315.734 348 319.328 349.656V366.062H305.125C304.25 364.375 303.109 362.875 301.703 361.562C300.297 360.25 298.516 359.594 296.359 359.594C294.078 359.594 292.531 360.438 291.719 362.125C290.906 363.812 290.5 365.875 290.5 368.312C294.906 368.469 299 368.922 302.781 369.672C306.562 370.391 309.875 371.594 312.719 373.281C315.562 374.938 317.766 377.219 319.328 380.125C320.922 383.031 321.719 386.734 321.719 391.234C321.719 396.891 320.375 401.281 317.688 404.406C315 407.531 311.359 409.719 306.766 410.969C302.203 412.219 297.062 412.844 291.344 412.844ZM338.594 412V393.297L344.219 392.219V363.438C342.688 363.438 341.141 363.688 339.578 364.188C338.047 364.688 336.766 365.422 335.734 366.391C334.703 367.359 334.188 368.562 334.188 370H326.359V346H390.297V370H382.469C382.469 368.562 381.938 367.359 380.875 366.391C379.844 365.422 378.562 364.688 377.031 364.188C375.5 363.688 373.969 363.438 372.438 363.438V392.219L378.062 393.297V412H338.594Z" fill="black"/>
<defs>
<filter id="filter0_di_404_47" x="140" y="124" width="185" height="185" filterUnits="userSpaceOnUse" color-interpolation-filters="sRGB">
<feFlood flood-opacity="0" result="BackgroundImageFix"/>
<feColorMatrix in="SourceAlpha" type="matrix" values="0 0 0 0 0 0 0 0 0 0 0 0 0 0 0 0 0 0 127 0" result="hardAlpha"/>
<feMorphology radius="6" operator="dilate" in="SourceAlpha" result="effect1_dropShadow_404_47"/>
<feOffset dy="4"/>
<feGaussianBlur stdDeviation="2"/>
<feComposite in2="hardAlpha" operator="out"/>
<feColorMatrix type="matrix" values="0 0 0 0 0 0 0 0 0 0 0 0 0 0 0 0 0 0 0.25 0"/>
<feBlend mode="normal" in2="BackgroundImageFix" result="effect1_dropShadow_404_47"/>
<feBlend mode="normal" in="SourceGraphic" in2="effect1_dropShadow_404_47" result="shape"/>
<feColorMatrix in="SourceAlpha" type="matrix" values="0 0 0 0 0 0 0 0 0 0 0 0 0 0 0 0 0 0 127 0" result="hardAlpha"/>
<feMorphology radius="8" operator="erode" in="SourceAlpha" result="effect2_innerShadow_404_47"/>
<feOffset dx="2" dy="4"/>
<feGaussianBlur stdDeviation="2"/>
<feComposite in2="hardAlpha" operator="arithmetic" k2="-1" k3="1"/>
<feColorMatrix type="matrix" values="0 0 0 0 1 0 0 0 0 1 0 0 0 0 1 0 0 0 0.25 0"/>
<feBlend mode="normal" in2="shape" result="effect2_innerShadow_404_47"/>
</filter>
</defs>
</svg>
