<svg width="460" height="133" viewBox="0 0 460 133" fill="none" xmlns="http://www.w3.org/2000/svg">
<line x1="58.211" y1="2.61083" x2="0.210955" y2="19.6108" stroke="white" stroke-width="1.5"/>
<line x1="0.0374532" y1="19.142" x2="40.0375" y2="21.142" stroke="white" stroke-width="1.5"/>
<line x1="58.5303" y1="2.42144" x2="39.5303" y2="21.4214" stroke="white" stroke-width="1.5"/>
<line x1="64.5303" y1="1.42144" x2="43.5303" y2="22.4214" stroke="white" stroke-width="1.5"/>
<line x1="64.7499" y1="0.903823" x2="63.7499" y2="59.9038" stroke="white" stroke-width="1.5"/>
<line x1="43.6637" y1="21.5418" x2="63.6637" y2="59.5418" stroke="white" stroke-width="1.5"/>
<line x1="67.7499" y1="0.901982" x2="66.7499" y2="69.902" stroke="white" stroke-width="1.5"/>
<line x1="67.6033" y1="0.445581" x2="115.603" y2="65.4456" stroke="white" stroke-width="1.5"/>
<line x1="66.9377" y1="69.1437" x2="114.938" y2="65.1437" stroke="white" stroke-width="1.5"/>
<line x1="105.43" y1="46.5665" x2="119.579" y2="65.4547" stroke="white" stroke-width="1.5"/>
<line x1="105.58" y1="46.7349" x2="133.917" y2="36.6339" stroke="white" stroke-width="1.5"/>
<line x1="133.798" y1="37.2846" x2="119.547" y2="66.1617" stroke="white" stroke-width="1.5"/>
<line x1="135.775" y1="38.2626" x2="129.577" y2="51.1695" stroke="white" stroke-width="1.5"/>
<line x1="129.168" y1="50.2858" x2="146.238" y2="55.0413" stroke="white" stroke-width="1.5"/>
<line x1="135.553" y1="37.5454" x2="146.719" y2="55.4427" stroke="white" stroke-width="1.5"/>
<line x1="65.9425" y1="72.1433" x2="117.942" y2="68.1433" stroke="white" stroke-width="1.5"/>
<line x1="66.2633" y1="72.1889" x2="114.263" y2="90.1889" stroke="white" stroke-width="1.5"/>
<line x1="118.722" y1="68.0221" x2="114.738" y2="90.475" stroke="white" stroke-width="1.5"/>
<line x1="114.75" y1="89.8911" x2="114.75" y2="90.8911" stroke="white" stroke-width="1.5"/>
<line x1="66.7049" y1="75.8897" x2="66.7952" y2="123.89" stroke="white" stroke-width="1.5"/>
<line x1="66.5775" y1="123.271" x2="110.577" y2="93.2714" stroke="white" stroke-width="1.5"/>
<line x1="66.284" y1="75.197" x2="110.284" y2="93.197" stroke="white" stroke-width="1.5"/>
<line x1="63.75" y1="96.8911" x2="63.75" y2="121.891" stroke="white" stroke-width="1.5"/>
<line x1="63.3779" y1="97.5389" x2="39.3779" y2="111.539" stroke="white" stroke-width="1.5"/>
<line x1="39.2885" y1="111.199" x2="63.2885" y2="121.199" stroke="white" stroke-width="1.5"/>
<line x1="39.3143" y1="113.21" x2="52.3143" y2="119.21" stroke="white" stroke-width="1.5"/>
<line x1="39.75" y1="113.891" x2="39.75" y2="132.891" stroke="white" stroke-width="1.5"/>
<line x1="39.4489" y1="132.382" x2="51.4489" y2="119.382" stroke="white" stroke-width="1.5"/>
<mask id="path-29-outside-1_586_212" maskUnits="userSpaceOnUse" x="168" y="44.8911" width="285" height="55" fill="black">
<rect fill="white" x="168" y="44.8911" width="285" height="55"/>
<path d="M182.355 70.987C181.778 71.0254 181.163 71.0446 180.51 71.0446C179.856 71.0446 178.886 70.9966 177.598 70.9005V85.8911H169.958V47.3479C172.649 47.002 175.955 46.829 179.875 46.829C185.218 46.829 189.196 47.8188 191.81 49.7983C194.443 51.7586 195.76 54.7952 195.76 58.908C195.76 62.0983 194.558 64.8274 192.156 67.0952C191.368 67.8255 190.465 68.4597 189.446 68.9978L195.327 81.3939C196.48 83.95 197.364 85.4683 197.979 85.9488L197.835 86.0929C195.971 85.7854 193.04 85.795 189.043 86.1217L182.355 70.987ZM180.423 53.6324C179.443 53.6324 178.501 53.6805 177.598 53.7766V64.7889C178.54 64.9235 179.645 64.9907 180.913 64.9907C182.182 64.9907 183.248 64.885 184.113 64.6736C184.978 64.443 185.727 64.0971 186.362 63.6358C187.726 62.6172 188.408 61.0893 188.408 59.0521C188.408 57.0149 187.697 55.5831 186.275 54.7567C184.949 54.0072 182.998 53.6324 180.423 53.6324ZM202.217 71.0735C202.217 68.8249 202.601 66.7396 203.37 64.8178C204.139 62.8959 205.225 61.2142 206.628 59.7728C209.626 56.7171 213.547 55.1892 218.39 55.1892C222.483 55.1892 225.77 56.5441 228.249 59.2539C230.69 61.8677 231.91 65.1541 231.91 69.1131C231.91 70.6314 231.795 71.6692 231.564 72.2266C229.642 72.7647 225.731 73.0338 219.831 73.0338H209.684C210.183 75.0902 211.346 76.6949 213.172 77.8481C214.998 78.982 217.371 79.5489 220.292 79.5489C223.348 79.5489 225.971 79.0012 228.162 77.9057C228.739 77.6174 229.171 77.3484 229.46 77.0985C229.421 77.9057 229.373 78.7321 229.316 79.5778L228.998 84.0749C227.538 85.0743 225.174 85.7662 221.907 86.1506C220.946 86.2659 220.023 86.3235 219.139 86.3235C214.258 86.3235 210.222 84.9013 207.031 82.057C203.822 79.1934 202.217 75.5322 202.217 71.0735ZM224.242 67.4411C223.454 63.3091 221.205 61.2431 217.496 61.2431C214.575 61.2431 212.355 62.5019 210.837 65.0196C210.375 65.7883 210.02 66.6339 209.77 67.5564C210.231 67.5756 210.798 67.5949 211.471 67.6141H213.604C214.315 67.6333 214.998 67.6429 215.651 67.6429H217.294C218.274 67.6429 219.235 67.6333 220.177 67.6141L222.541 67.5276C223.175 67.5084 223.742 67.4796 224.242 67.4411ZM233.842 55.7657H242L249.034 75.5995L255.837 55.7657H263.823L251.917 85.8911H245.978L233.842 55.7657ZM266.504 71.0735C266.504 68.8249 266.888 66.7396 267.657 64.8178C268.426 62.8959 269.512 61.2142 270.915 59.7728C273.913 56.7171 277.833 55.1892 282.676 55.1892C286.77 55.1892 290.056 56.5441 292.536 59.2539C294.976 61.8677 296.197 65.1541 296.197 69.1131C296.197 70.6314 296.081 71.6692 295.851 72.2266C293.929 72.7647 290.018 73.0338 284.118 73.0338H273.97C274.47 75.0902 275.633 76.6949 277.459 77.8481C279.284 78.982 281.658 79.5489 284.579 79.5489C287.635 79.5489 290.258 79.0012 292.449 77.9057C293.026 77.6174 293.458 77.3484 293.746 77.0985C293.708 77.9057 293.66 78.7321 293.602 79.5778L293.285 84.0749C291.825 85.0743 289.461 85.7662 286.193 86.1506C285.233 86.2659 284.31 86.3235 283.426 86.3235C278.544 86.3235 274.508 84.9013 271.318 82.057C268.109 79.1934 266.504 75.5322 266.504 71.0735ZM288.529 67.4411C287.741 63.3091 285.492 61.2431 281.783 61.2431C278.861 61.2431 276.642 62.5019 275.123 65.0196C274.662 65.7883 274.307 66.6339 274.057 67.5564C274.518 67.5756 275.085 67.5949 275.758 67.6141H277.891C278.602 67.6333 279.284 67.6429 279.938 67.6429H281.581C282.561 67.6429 283.522 67.6333 284.464 67.6141L286.828 67.5276C287.462 67.5084 288.029 67.4796 288.529 67.4411ZM309.285 82.6624C309.285 84.3152 309.323 85.3914 309.4 85.8911H302.222V55.7657H309.285V57.9855C310.918 56.1213 312.629 55.1892 314.416 55.1892C316.223 55.1892 317.645 55.4102 318.683 55.8522L318.164 63.607L318.049 63.6935C317.376 62.5019 315.982 61.9061 313.868 61.9061C313.061 61.9061 312.235 62.1848 311.389 62.7421C310.563 63.2803 309.861 64.001 309.285 64.9042V82.6624ZM340.102 46.829C343.696 46.829 346.761 47.4536 349.298 48.7028V57.5242L349.241 57.5819C348.164 55.9291 345.896 54.8336 342.437 54.2955C341.419 54.1225 340.131 54.036 338.574 54.036C337.017 54.036 335.49 54.3339 333.99 54.9297C332.491 55.5063 331.261 56.3327 330.3 57.4089C328.436 59.5038 327.504 62.4923 327.504 66.3745C327.504 70.8909 328.686 74.2542 331.05 76.4643C333.01 78.3093 335.605 79.2318 338.834 79.2318C342.485 79.2318 345.445 78.4535 347.713 76.8967C348.539 76.3394 349.241 75.6475 349.817 74.8211L349.904 74.8788V82.9506C346.963 85.3914 343.004 86.6118 338.026 86.6118C332.165 86.6118 327.571 84.7476 324.247 81.0192C321.056 77.4637 319.461 72.7551 319.461 66.8934C319.461 60.6857 321.21 55.7946 324.708 52.2199C328.244 48.626 333.375 46.829 340.102 46.829ZM355.003 85.8911C355.157 84.849 355.234 83.9265 355.234 83.1236C355.234 82.3207 355.225 81.774 355.208 81.4836C355.208 81.1761 355.199 80.8772 355.182 80.5867C355.165 80.2963 355.148 80.023 355.131 79.7667L355.054 79.1261H362.485C362.434 79.7753 362.409 80.3049 362.409 80.7149L362.357 81.7911C362.357 82.1157 362.357 82.7307 362.357 83.6361C362.357 84.5244 362.4 85.2761 362.485 85.8911H355.003ZM382.007 86.5602C379.33 86.5602 376.858 86.0212 374.591 84.9432C372.36 83.828 370.576 82.1366 369.238 79.869C367.899 77.6015 367.23 74.7763 367.23 71.3935V70.2783C367.23 67.0814 367.899 64.4049 369.238 62.2489C370.576 60.0556 372.36 58.42 374.591 57.342C376.858 56.2268 379.33 55.6692 382.007 55.6692C384.72 55.6692 387.192 56.2268 389.423 57.342C391.653 58.42 393.437 60.0556 394.776 62.2489C396.114 64.4049 396.783 67.0814 396.783 70.2783V71.3935C396.783 74.7019 396.114 77.4899 394.776 79.7575C393.437 82.0251 391.653 83.7351 389.423 84.8874C387.192 86.0026 384.72 86.5602 382.007 86.5602ZM382.007 80.3151C383.419 80.3151 384.664 79.9991 385.743 79.3672C386.858 78.6981 387.731 77.6944 388.363 76.3562C388.995 75.0179 389.311 73.3637 389.311 71.3935V70.2783C389.311 68.4568 388.995 66.9327 388.363 65.706C387.731 64.4793 386.858 63.5499 385.743 62.918C384.664 62.2489 383.419 61.9143 382.007 61.9143C380.594 61.9143 379.33 62.2489 378.215 62.918C377.137 63.5499 376.282 64.4793 375.65 65.706C375.018 66.9327 374.702 68.4568 374.702 70.2783V71.3935C374.702 73.4009 375.018 75.0737 375.65 76.4119C376.282 77.713 377.137 78.6981 378.215 79.3672C379.33 79.9991 380.594 80.3151 382.007 80.3151ZM402.114 85.8911V56.3383H408.805V60.7434C409.214 59.8884 409.772 59.0891 410.478 58.3457C411.184 57.6022 412.058 56.9703 413.099 56.4498C414.14 55.9294 415.292 55.6692 416.556 55.6692C417.262 55.6692 417.857 55.7064 418.34 55.7807C418.861 55.8551 419.195 55.9294 419.344 56.0038V62.5277C418.972 62.379 418.489 62.2489 417.894 62.1374C417.337 61.9887 416.575 61.9143 415.608 61.9143C414.121 61.9143 412.913 62.2303 411.984 62.8622C411.092 63.4942 410.441 64.3306 410.032 65.3714C409.623 66.3751 409.419 67.4717 409.419 68.6613V85.8911H402.114ZM436.065 97.7122C432.943 97.7122 430.452 97.3219 428.594 96.5413C426.735 95.7978 425.36 94.757 424.467 93.4187C423.612 92.0805 423.111 90.5006 422.962 88.6791H430.434C430.657 89.4598 431.159 90.1846 431.939 90.8538C432.72 91.56 434.095 91.9132 436.065 91.9132C438.556 91.9132 440.415 91.3184 441.641 90.1289C442.868 88.9393 443.482 87.155 443.482 84.7759V81.2073C442.552 82.657 441.307 83.828 439.746 84.7202C438.184 85.5751 436.4 86.0026 434.393 86.0026C431.828 86.0026 429.597 85.445 427.701 84.3298C425.843 83.2146 424.393 81.5604 423.352 79.3672C422.349 77.1368 421.847 74.386 421.847 71.1147V69.9995C421.847 66.9141 422.349 64.312 423.352 62.1931C424.393 60.0742 425.861 58.4572 427.757 57.342C429.653 56.2268 431.865 55.6692 434.393 55.6692C436.846 55.6692 438.872 56.171 440.471 57.1747C442.069 58.1784 443.24 59.3494 443.983 60.6876V56.3383H450.786V84.2183C450.786 88.6048 449.578 91.9504 447.162 94.2551C444.745 96.5599 441.047 97.7122 436.065 97.7122ZM436.121 79.7575C437.608 79.7575 438.891 79.4973 439.969 78.9769C441.084 78.4193 441.939 77.5643 442.534 76.4119C443.166 75.2595 443.482 73.8655 443.482 72.2299V68.8843C443.482 67.323 443.166 66.0406 442.534 65.0369C441.902 64.0332 441.01 63.2711 439.857 62.7507C438.742 62.1931 437.497 61.9143 436.121 61.9143C434.114 61.9143 432.478 62.602 431.214 63.9774C429.95 65.3157 429.319 67.323 429.319 69.9995V71.1147C429.319 73.9771 429.969 76.1331 431.27 77.5829C432.571 79.0326 434.188 79.7575 436.121 79.7575Z"/>
</mask>
<path d="M182.355 70.987L183.727 70.3807L183.302 69.4205L182.255 69.4903L182.355 70.987ZM177.598 70.9005L177.71 69.4046L176.098 69.2844V70.9005H177.598ZM177.598 85.8911V87.3911H179.098V85.8911H177.598ZM169.958 85.8911H168.458V87.3911H169.958V85.8911ZM169.958 47.3479L169.767 45.8602L168.458 46.0284V47.3479H169.958ZM191.81 49.7983L190.905 50.9941L190.914 51.0015L191.81 49.7983ZM192.156 67.0952L193.176 68.1954L193.186 68.1859L192.156 67.0952ZM189.446 68.9978L188.746 67.6715L187.475 68.3427L188.091 69.6408L189.446 68.9978ZM195.327 81.3939L196.694 80.7771L196.689 80.764L196.682 80.751L195.327 81.3939ZM197.979 85.9488L199.04 87.0094L200.239 85.8105L198.903 84.7667L197.979 85.9488ZM197.835 86.0929L197.591 87.5729L198.351 87.6983L198.896 87.1536L197.835 86.0929ZM189.043 86.1217L187.671 86.728L188.102 87.7036L189.165 87.6168L189.043 86.1217ZM177.598 53.7766L177.439 52.285L176.098 52.4277V53.7766H177.598ZM177.598 64.7889H176.098V66.0899L177.386 66.2738L177.598 64.7889ZM184.113 64.6736L184.469 66.1307L184.484 66.127L184.5 66.123L184.113 64.6736ZM186.362 63.6358L187.244 64.8489L187.251 64.8434L187.259 64.8378L186.362 63.6358ZM186.275 54.7567L187.029 53.4598L187.021 53.4553L187.013 53.4509L186.275 54.7567ZM182.355 70.987L182.255 69.4903C181.715 69.5263 181.134 69.5446 180.51 69.5446V71.0446V72.5446C181.192 72.5446 181.841 72.5246 182.454 72.4837L182.355 70.987ZM180.51 71.0446V69.5446C179.914 69.5446 178.988 69.5001 177.71 69.4046L177.598 70.9005L177.486 72.3963C178.783 72.4931 179.798 72.5446 180.51 72.5446V71.0446ZM177.598 70.9005H176.098V85.8911H177.598H179.098V70.9005H177.598ZM177.598 85.8911V84.3911H169.958V85.8911V87.3911H177.598V85.8911ZM169.958 85.8911H171.458V47.3479H169.958H168.458V85.8911H169.958ZM169.958 47.3479L170.15 48.8357C172.756 48.5006 175.993 48.329 179.875 48.329V46.829V45.329C175.916 45.329 172.542 45.5034 169.767 45.8602L169.958 47.3479ZM179.875 46.829V48.329C185.081 48.329 188.67 49.3018 190.905 50.9941L191.81 49.7983L192.716 48.6025C189.723 46.3357 185.356 45.329 179.875 45.329V46.829ZM191.81 49.7983L190.914 51.0015C193.072 52.6077 194.26 55.1361 194.26 58.908H195.76H197.26C197.26 54.4542 195.814 50.9095 192.706 48.5951L191.81 49.7983ZM195.76 58.908H194.26C194.26 61.6692 193.241 64.0086 191.126 66.0044L192.156 67.0952L193.186 68.1859C195.876 65.6461 197.26 62.5274 197.26 58.908H195.76ZM192.156 67.0952L191.136 65.995C190.451 66.6302 189.657 67.1902 188.746 67.6715L189.446 68.9978L190.147 70.3241C191.273 69.7292 192.285 69.0208 193.176 68.1953L192.156 67.0952ZM189.446 68.9978L188.091 69.6408L193.972 82.0369L195.327 81.3939L196.682 80.751L190.801 68.3549L189.446 68.9978ZM195.327 81.3939L193.96 82.0108C194.547 83.3118 195.08 84.3824 195.559 85.2045C196.007 85.9735 196.502 86.6983 197.056 87.1308L197.979 85.9488L198.903 84.7667C198.905 84.7687 198.884 84.7519 198.839 84.7031C198.795 84.6555 198.738 84.5874 198.668 84.4938C198.526 84.3049 198.354 84.0427 198.151 83.6949C197.746 82.9987 197.261 82.0322 196.694 80.7771L195.327 81.3939ZM197.979 85.9488L196.919 84.8881L196.775 85.0322L197.835 86.0929L198.896 87.1536L199.04 87.0094L197.979 85.9488ZM197.835 86.0929L198.079 84.6129C196.022 84.2735 192.935 84.2986 188.92 84.6267L189.043 86.1217L189.165 87.6168C193.145 87.2915 195.92 87.2973 197.591 87.5729L197.835 86.0929ZM189.043 86.1217L190.415 85.5154L183.727 70.3807L182.355 70.987L180.983 71.5933L187.671 86.728L189.043 86.1217ZM180.423 53.6324V52.1324C179.394 52.1324 178.399 52.1829 177.439 52.285L177.598 53.7766L177.757 55.2682C178.603 55.1781 179.492 55.1324 180.423 55.1324V53.6324ZM177.598 53.7766H176.098V64.7889H177.598H179.098V53.7766H177.598ZM177.598 64.7889L177.386 66.2738C178.416 66.4211 179.596 66.4907 180.913 66.4907V64.9907V63.4907C179.694 63.4907 178.663 63.4258 177.81 63.304L177.598 64.7889ZM180.913 64.9907V66.4907C182.255 66.4907 183.45 66.3798 184.469 66.1307L184.113 64.6736L183.757 63.2165C183.046 63.3902 182.108 63.4907 180.913 63.4907V64.9907ZM184.113 64.6736L184.5 66.123C185.518 65.8514 186.441 65.433 187.244 64.8489L186.362 63.6358L185.479 62.4227C185.014 62.7611 184.438 63.0345 183.727 63.2243L184.113 64.6736ZM186.362 63.6358L187.259 64.8378C189.079 63.4788 189.908 61.458 189.908 59.0521H188.408H186.908C186.908 60.7207 186.373 61.7556 185.464 62.4338L186.362 63.6358ZM188.408 59.0521H189.908C189.908 56.6293 189.029 54.6219 187.029 53.4598L186.275 54.7567L185.522 56.0537C186.366 56.5444 186.908 57.4006 186.908 59.0521H188.408ZM186.275 54.7567L187.013 53.4509C185.356 52.5143 183.1 52.1324 180.423 52.1324V53.6324V55.1324C182.897 55.1324 184.542 55.5001 185.537 56.0626L186.275 54.7567ZM206.628 59.7728L205.557 58.7223L205.553 58.7266L206.628 59.7728ZM228.249 59.2539L227.142 60.2664L227.147 60.2721L227.153 60.2777L228.249 59.2539ZM231.564 72.2266L231.969 73.671L232.671 73.4743L232.95 72.8001L231.564 72.2266ZM209.684 73.0338V71.5338H207.775L208.226 73.3879L209.684 73.0338ZM213.172 77.8481L212.371 79.1163L212.38 79.1223L213.172 77.8481ZM229.46 77.0985L230.958 77.1699L231.125 73.6707L228.477 75.965L229.46 77.0985ZM229.316 79.5778L230.812 79.6833L230.812 79.6798L229.316 79.5778ZM228.998 84.0749L229.845 85.3129L230.444 84.9036L230.495 84.1805L228.998 84.0749ZM221.907 86.1506L221.731 84.6608L221.728 84.6613L221.907 86.1506ZM207.031 82.057L206.033 83.1762L206.033 83.1766L207.031 82.057ZM224.242 67.4411L224.357 68.9367L226.029 68.808L225.715 67.1601L224.242 67.4411ZM210.837 65.0196L209.552 64.2449L209.55 64.2478L210.837 65.0196ZM209.77 67.5564L208.322 67.1643L207.831 68.9769L209.708 69.0551L209.77 67.5564ZM211.471 67.6141L211.428 69.1135L211.45 69.1141H211.471V67.6141ZM213.604 67.6141L213.645 66.1146L213.624 66.1141H213.604V67.6141ZM220.177 67.6141L220.208 69.1138L220.22 69.1135L220.232 69.1131L220.177 67.6141ZM222.541 67.5276L222.496 66.0283L222.486 66.0286L222.541 67.5276ZM202.217 71.0735H203.717C203.717 68.9991 204.071 67.1048 204.763 65.3748L203.37 64.8178L201.978 64.2607C201.132 66.3745 200.717 68.6506 200.717 71.0735H202.217ZM203.37 64.8178L204.763 65.3748C205.461 63.6298 206.441 62.1157 207.703 60.8191L206.628 59.7728L205.553 58.7266C204.009 60.3128 202.817 62.1619 201.978 64.2607L203.37 64.8178ZM206.628 59.7728L207.699 60.8233C210.376 58.0939 213.892 56.6892 218.39 56.6892V55.1892V53.6892C213.202 53.6892 208.875 55.3402 205.557 58.7223L206.628 59.7728ZM218.39 55.1892V56.6892C222.116 56.6892 224.981 57.9046 227.142 60.2664L228.249 59.2539L229.356 58.2414C226.558 55.1835 222.851 53.6892 218.39 53.6892V55.1892ZM228.249 59.2539L227.153 60.2777C229.305 62.583 230.41 65.49 230.41 69.1131H231.91H233.41C233.41 64.8182 232.074 61.1524 229.345 58.2302L228.249 59.2539ZM231.91 69.1131H230.41C230.41 70.6463 230.281 71.4038 230.178 71.6531L231.564 72.2266L232.95 72.8001C233.308 71.9346 233.41 70.6166 233.41 69.1131H231.91ZM231.564 72.2266L231.16 70.7821C229.469 71.2556 225.765 71.5338 219.831 71.5338V73.0338V74.5338C225.697 74.5338 229.816 74.2738 231.969 73.671L231.564 72.2266ZM219.831 73.0338V71.5338H209.684V73.0338V74.5338H219.831V73.0338ZM209.684 73.0338L208.226 73.3879C208.82 75.8312 210.223 77.76 212.371 79.1163L213.172 77.8481L213.973 76.5798C212.469 75.6299 211.547 74.3491 211.141 72.6796L209.684 73.0338ZM213.172 77.8481L212.38 79.1223C214.515 80.4478 217.189 81.0489 220.292 81.0489V79.5489V78.0489C217.554 78.0489 215.481 77.5162 213.963 76.5738L213.172 77.8481ZM220.292 79.5489V81.0489C223.525 81.0489 226.389 80.4695 228.833 79.2474L228.162 77.9057L227.492 76.5641C225.554 77.5328 223.172 78.0489 220.292 78.0489V79.5489ZM228.162 77.9057L228.833 79.2474C229.456 78.9358 230.016 78.6012 230.442 78.2321L229.46 77.0985L228.477 75.965C228.327 76.0956 228.022 76.2991 227.492 76.5641L228.162 77.9057ZM229.46 77.0985L227.961 77.0272C227.923 77.8237 227.876 78.6398 227.819 79.4757L229.316 79.5778L230.812 79.6798C230.87 78.8244 230.919 77.9878 230.958 77.1699L229.46 77.0985ZM229.316 79.5778L227.819 79.4722L227.502 83.9694L228.998 84.0749L230.495 84.1805L230.812 79.6833L229.316 79.5778ZM228.998 84.0749L228.151 82.837C226.998 83.6264 224.931 84.2844 221.731 84.6608L221.907 86.1506L222.082 87.6403C225.417 87.248 228.078 86.5222 229.845 85.3129L228.998 84.0749ZM221.907 86.1506L221.728 84.6613C220.821 84.7701 219.958 84.8235 219.139 84.8235V86.3235V87.8235C220.088 87.8235 221.071 87.7617 222.085 87.6399L221.907 86.1506ZM219.139 86.3235V84.8235C214.57 84.8235 210.906 83.5019 208.03 80.9373L207.031 82.057L206.033 83.1766C209.537 86.3008 213.945 87.8235 219.139 87.8235V86.3235ZM207.031 82.057L208.03 80.9377C205.153 78.3704 203.717 75.1225 203.717 71.0735H202.217H200.717C200.717 75.9419 202.491 80.0164 206.033 83.1762L207.031 82.057ZM224.242 67.4411L225.715 67.1601C225.283 64.8947 224.416 63.008 222.979 61.688C221.521 60.3485 219.642 59.7431 217.496 59.7431V61.2431V62.7431C219.06 62.7431 220.159 63.1706 220.95 63.8971C221.761 64.6432 222.412 65.8555 222.768 67.7221L224.242 67.4411ZM217.496 61.2431V59.7431C214.045 59.7431 211.34 61.2807 209.552 64.2449L210.837 65.0196L212.121 65.7942C213.37 63.7231 215.105 62.7431 217.496 62.7431V61.2431ZM210.837 65.0196L209.55 64.2478C209.014 65.1426 208.606 66.1172 208.322 67.1643L209.77 67.5564L211.218 67.9485C211.434 67.1506 211.737 66.434 212.123 65.7913L210.837 65.0196ZM209.77 67.5564L209.708 69.0551C210.178 69.0747 210.752 69.0941 211.428 69.1135L211.471 67.6141L211.514 66.1147C210.845 66.0956 210.285 66.0766 209.833 66.0577L209.77 67.5564ZM211.471 67.6141V69.1141H213.604V67.6141V66.1141H211.471V67.6141ZM213.604 67.6141L213.564 69.1135C214.287 69.1331 214.983 69.1429 215.651 69.1429V67.6429V66.1429C215.012 66.1429 214.344 66.1335 213.645 66.1146L213.604 67.6141ZM215.651 67.6429V69.1429H217.294V67.6429V66.1429H215.651V67.6429ZM217.294 67.6429V69.1429C218.284 69.1429 219.255 69.1332 220.208 69.1138L220.177 67.6141L220.146 66.1144C219.215 66.1334 218.265 66.1429 217.294 66.1429V67.6429ZM220.177 67.6141L220.232 69.1131L222.596 69.0266L222.541 67.5276L222.486 66.0286L220.122 66.1151L220.177 67.6141ZM222.541 67.5276L222.586 69.0269C223.238 69.0072 223.829 68.9773 224.357 68.9367L224.242 67.4411L224.127 65.9455C223.655 65.9818 223.112 66.0096 222.496 66.0283L222.541 67.5276ZM233.842 55.7657V54.2657H231.62L232.45 56.3263L233.842 55.7657ZM242 55.7657L243.414 55.2643L243.059 54.2657H242V55.7657ZM249.034 75.5995L247.62 76.1009L249.058 80.1537L250.453 76.0862L249.034 75.5995ZM255.837 55.7657V54.2657H254.766L254.419 55.279L255.837 55.7657ZM263.823 55.7657L265.218 56.317L266.029 54.2657H263.823V55.7657ZM251.917 85.8911V87.3911H252.937L253.312 86.4424L251.917 85.8911ZM245.978 85.8911L244.587 86.4516L244.965 87.3911H245.978V85.8911ZM233.842 55.7657V57.2657H242V55.7657V54.2657H233.842V55.7657ZM242 55.7657L240.586 56.2671L247.62 76.1009L249.034 75.5995L250.448 75.0981L243.414 55.2643L242 55.7657ZM249.034 75.5995L250.453 76.0862L257.256 56.2524L255.837 55.7657L254.419 55.279L247.615 75.1128L249.034 75.5995ZM255.837 55.7657V57.2657H263.823V55.7657V54.2657H255.837V55.7657ZM263.823 55.7657L262.428 55.2144L250.522 85.3398L251.917 85.8911L253.312 86.4424L265.218 56.317L263.823 55.7657ZM251.917 85.8911V84.3911H245.978V85.8911V87.3911H251.917V85.8911ZM245.978 85.8911L247.37 85.3306L235.233 55.2052L233.842 55.7657L232.45 56.3263L244.587 86.4516L245.978 85.8911ZM270.915 59.7728L269.844 58.7223L269.84 58.7266L270.915 59.7728ZM292.536 59.2539L291.429 60.2664L291.434 60.2721L291.439 60.2777L292.536 59.2539ZM295.851 72.2266L296.255 73.671L296.958 73.4743L297.237 72.8001L295.851 72.2266ZM273.97 73.0338V71.5338H272.062L272.513 73.3879L273.97 73.0338ZM277.459 77.8481L276.658 79.1163L276.667 79.1223L277.459 77.8481ZM293.746 77.0985L295.245 77.1699L295.411 73.6707L292.764 75.965L293.746 77.0985ZM293.602 79.5778L295.099 79.6833L295.099 79.6798L293.602 79.5778ZM293.285 84.0749L294.132 85.3129L294.73 84.9036L294.781 84.1805L293.285 84.0749ZM286.193 86.1506L286.018 84.6608L286.015 84.6613L286.193 86.1506ZM271.318 82.057L270.32 83.1762L270.32 83.1766L271.318 82.057ZM288.529 67.4411L288.644 68.9367L290.316 68.808L290.002 67.1601L288.529 67.4411ZM275.123 65.0196L273.839 64.2449L273.837 64.2478L275.123 65.0196ZM274.057 67.5564L272.609 67.1643L272.118 68.9769L273.994 69.0551L274.057 67.5564ZM275.758 67.6141L275.715 69.1135L275.736 69.1141H275.758V67.6141ZM277.891 67.6141L277.931 66.1146L277.911 66.1141H277.891V67.6141ZM284.464 67.6141L284.494 69.1138L284.506 69.1135L284.519 69.1131L284.464 67.6141ZM286.828 67.5276L286.782 66.0283L286.773 66.0286L286.828 67.5276ZM266.504 71.0735H268.004C268.004 68.9991 268.358 67.1048 269.05 65.3748L267.657 64.8178L266.264 64.2607C265.419 66.3745 265.004 68.6506 265.004 71.0735H266.504ZM267.657 64.8178L269.05 65.3748C269.748 63.6298 270.727 62.1157 271.989 60.8191L270.915 59.7728L269.84 58.7266C268.296 60.3128 267.104 62.1619 266.264 64.2607L267.657 64.8178ZM270.915 59.7728L271.985 60.8233C274.663 58.0939 278.178 56.6892 282.676 56.6892V55.1892V53.6892C277.488 53.6892 273.162 55.3402 269.844 58.7223L270.915 59.7728ZM282.676 55.1892V56.6892C286.403 56.6892 289.268 57.9046 291.429 60.2664L292.536 59.2539L293.642 58.2414C290.845 55.1835 287.137 53.6892 282.676 53.6892V55.1892ZM292.536 59.2539L291.439 60.2777C293.592 62.583 294.697 65.49 294.697 69.1131H296.197H297.697C297.697 64.8182 296.361 61.1524 293.632 58.2302L292.536 59.2539ZM296.197 69.1131H294.697C294.697 70.6463 294.568 71.4038 294.465 71.6531L295.851 72.2266L297.237 72.8001C297.595 71.9346 297.697 70.6166 297.697 69.1131H296.197ZM295.851 72.2266L295.446 70.7821C293.755 71.2556 290.052 71.5338 284.118 71.5338V73.0338V74.5338C289.984 74.5338 294.103 74.2738 296.255 73.671L295.851 72.2266ZM284.118 73.0338V71.5338H273.97V73.0338V74.5338H284.118V73.0338ZM273.97 73.0338L272.513 73.3879C273.106 75.8312 274.51 77.76 276.658 79.1163L277.459 77.8481L278.26 76.5798C276.755 75.6299 275.834 74.3491 275.428 72.6796L273.97 73.0338ZM277.459 77.8481L276.667 79.1223C278.801 80.4478 281.475 81.0489 284.579 81.0489V79.5489V78.0489C281.84 78.0489 279.767 77.5162 278.25 76.5738L277.459 77.8481ZM284.579 79.5489V81.0489C287.811 81.0489 290.676 80.4695 293.12 79.2474L292.449 77.9057L291.778 76.5641C289.841 77.5328 287.458 78.0489 284.579 78.0489V79.5489ZM292.449 77.9057L293.12 79.2474C293.743 78.9358 294.303 78.6012 294.729 78.2321L293.746 77.0985L292.764 75.965C292.613 76.0956 292.308 76.2991 291.778 76.5641L292.449 77.9057ZM293.746 77.0985L292.248 77.0272C292.21 77.8237 292.163 78.6398 292.106 79.4757L293.602 79.5778L295.099 79.6798C295.157 78.8244 295.206 77.9878 295.245 77.1699L293.746 77.0985ZM293.602 79.5778L292.106 79.4722L291.789 83.9694L293.285 84.0749L294.781 84.1805L295.099 79.6833L293.602 79.5778ZM293.285 84.0749L292.438 82.837C291.284 83.6264 289.218 84.2844 286.018 84.6608L286.193 86.1506L286.369 87.6403C289.703 87.248 292.365 86.5222 294.132 85.3129L293.285 84.0749ZM286.193 86.1506L286.015 84.6613C285.108 84.7701 284.245 84.8235 283.426 84.8235V86.3235V87.8235C284.375 87.8235 285.357 87.7617 286.372 87.6399L286.193 86.1506ZM283.426 86.3235V84.8235C278.857 84.8235 275.193 83.5019 272.316 80.9373L271.318 82.057L270.32 83.1766C273.824 86.3008 278.232 87.8235 283.426 87.8235V86.3235ZM271.318 82.057L272.317 80.9377C269.439 78.3704 268.004 75.1225 268.004 71.0735H266.504H265.004C265.004 75.9419 266.778 80.0164 270.32 83.1762L271.318 82.057ZM288.529 67.4411L290.002 67.1601C289.57 64.8947 288.703 63.008 287.266 61.688C285.808 60.3485 283.928 59.7431 281.783 59.7431V61.2431V62.7431C283.346 62.7431 284.445 63.1706 285.236 63.8971C286.048 64.6432 286.699 65.8555 287.055 67.7221L288.529 67.4411ZM281.783 61.2431V59.7431C278.332 59.7431 275.627 61.2807 273.839 64.2449L275.123 65.0196L276.408 65.7942C277.657 63.7231 279.391 62.7431 281.783 62.7431V61.2431ZM275.123 65.0196L273.837 64.2478C273.3 65.1426 272.893 66.1172 272.609 67.1643L274.057 67.5564L275.505 67.9485C275.721 67.1506 276.024 66.434 276.41 65.7913L275.123 65.0196ZM274.057 67.5564L273.994 69.0551C274.464 69.0747 275.038 69.0941 275.715 69.1135L275.758 67.6141L275.8 66.1147C275.132 66.0956 274.572 66.0766 274.119 66.0577L274.057 67.5564ZM275.758 67.6141V69.1141H277.891V67.6141V66.1141H275.758V67.6141ZM277.891 67.6141L277.85 69.1135C278.574 69.1331 279.27 69.1429 279.938 69.1429V67.6429V66.1429C279.299 66.1429 278.63 66.1335 277.931 66.1146L277.891 67.6141ZM279.938 67.6429V69.1429H281.581V67.6429V66.1429H279.938V67.6429ZM281.581 67.6429V69.1429C282.571 69.1429 283.542 69.1332 284.494 69.1138L284.464 67.6141L284.433 66.1144C283.502 66.1334 282.551 66.1429 281.581 66.1429V67.6429ZM284.464 67.6141L284.519 69.1131L286.882 69.0266L286.828 67.5276L286.773 66.0286L284.409 66.1151L284.464 67.6141ZM286.828 67.5276L286.873 69.0269C287.525 69.0072 288.116 68.9773 288.644 68.9367L288.529 67.4411L288.413 65.9455C287.942 65.9818 287.399 66.0096 286.782 66.0283L286.828 67.5276ZM309.4 85.8911V87.3911H311.148L310.883 85.663L309.4 85.8911ZM302.222 85.8911H300.722V87.3911H302.222V85.8911ZM302.222 55.7657V54.2657H300.722V55.7657H302.222ZM309.285 55.7657H310.785V54.2657H309.285V55.7657ZM309.285 57.9855H307.785V61.9732L310.413 58.9741L309.285 57.9855ZM318.683 55.8522L320.179 55.9524L320.251 54.8896L319.271 54.4722L318.683 55.8522ZM318.164 63.607L319.064 64.807L319.615 64.394L319.66 63.7071L318.164 63.607ZM318.049 63.6935L316.742 64.4308L317.582 65.9183L318.949 64.8935L318.049 63.6935ZM311.389 62.7421L312.208 63.9991L312.215 63.9946L311.389 62.7421ZM309.285 64.9042L308.02 64.0972L307.785 64.4663V64.9042H309.285ZM309.285 82.6624H307.785C307.785 84.2884 307.82 85.4849 307.918 86.1192L309.4 85.8911L310.883 85.663C310.826 85.2979 310.785 84.3419 310.785 82.6624H309.285ZM309.4 85.8911V84.3911H302.222V85.8911V87.3911H309.4V85.8911ZM302.222 85.8911H303.722V55.7657H302.222H300.722V85.8911H302.222ZM302.222 55.7657V57.2657H309.285V55.7657V54.2657H302.222V55.7657ZM309.285 55.7657H307.785V57.9855H309.285H310.785V55.7657H309.285ZM309.285 57.9855L310.413 58.9741C311.876 57.3041 313.209 56.6892 314.416 56.6892V55.1892V53.6892C312.049 53.6892 309.96 54.9385 308.157 56.9969L309.285 57.9855ZM314.416 55.1892V56.6892C316.128 56.6892 317.321 56.9027 318.095 57.2322L318.683 55.8522L319.271 54.4722C317.969 53.9176 316.317 53.6892 314.416 53.6892V55.1892ZM318.683 55.8522L317.186 55.7521L316.667 63.5068L318.164 63.607L319.66 63.7071L320.179 55.9524L318.683 55.8522ZM318.164 63.607L317.264 62.407L317.149 62.4935L318.049 63.6935L318.949 64.8935L319.064 64.807L318.164 63.607ZM318.049 63.6935L319.355 62.9561C318.29 61.0698 316.206 60.4061 313.868 60.4061V61.9061V63.4061C315.759 63.4061 316.462 63.934 316.742 64.4308L318.049 63.6935ZM313.868 61.9061V60.4061C312.701 60.4061 311.592 60.812 310.564 61.4897L311.389 62.7421L312.215 63.9946C312.878 63.5576 313.421 63.4061 313.868 63.4061V61.9061ZM311.389 62.7421L310.571 61.4851C309.55 62.1496 308.702 63.0297 308.02 64.0972L309.285 64.9042L310.549 65.7113C311.021 64.9722 311.575 64.4109 312.208 63.9991L311.389 62.7421ZM309.285 64.9042H307.785V82.6624H309.285H310.785V64.9042H309.285ZM349.298 48.7028H350.798V47.7695L349.961 47.3571L349.298 48.7028ZM349.298 57.5242L350.359 58.5849L350.798 58.1456V57.5242H349.298ZM349.241 57.5819L347.984 58.4004L348.993 59.9507L350.301 58.6426L349.241 57.5819ZM342.437 54.2955L342.186 55.7743L342.196 55.7761L342.207 55.7777L342.437 54.2955ZM333.99 54.9297L334.529 56.3297L334.537 56.3267L334.544 56.3237L333.99 54.9297ZM330.3 57.4089L329.182 56.4099L329.18 56.4117L330.3 57.4089ZM331.05 76.4643L332.078 75.372L332.074 75.3686L331.05 76.4643ZM347.713 76.8967L346.874 75.6531L346.864 75.6601L347.713 76.8967ZM349.817 74.8211L350.649 73.573L349.427 72.7584L348.587 73.9628L349.817 74.8211ZM349.904 74.8788H351.404V74.076L350.736 73.6307L349.904 74.8788ZM349.904 82.9506L350.862 84.1048L351.404 83.655V82.9506H349.904ZM324.247 81.0192L325.366 80.0208L325.363 80.0174L324.247 81.0192ZM324.708 52.2199L323.639 51.1678L323.636 51.1708L324.708 52.2199ZM340.102 46.829V48.329C343.527 48.329 346.353 48.9245 348.636 50.0485L349.298 48.7028L349.961 47.3571C347.17 45.9827 343.865 45.329 340.102 45.329V46.829ZM349.298 48.7028H347.798V57.5242H349.298H350.798V48.7028H349.298ZM349.298 57.5242L348.238 56.4636L348.18 56.5212L349.241 57.5819L350.301 58.6426L350.359 58.5849L349.298 57.5242ZM349.241 57.5819L350.498 56.7634C349.062 54.5583 346.243 53.3695 342.668 52.8133L342.437 54.2955L342.207 55.7777C345.55 56.2977 347.267 57.2999 347.984 58.4004L349.241 57.5819ZM342.437 54.2955L342.688 52.8167C341.556 52.6245 340.177 52.536 338.574 52.536V54.036V55.536C340.084 55.536 341.281 55.6206 342.186 55.7743L342.437 54.2955ZM338.574 54.036V52.536C336.821 52.536 335.105 52.8725 333.436 53.5358L333.99 54.9297L334.544 56.3237C335.874 55.7954 337.214 55.536 338.574 55.536V54.036ZM333.99 54.9297L333.452 53.5297C331.756 54.182 330.319 55.1364 329.182 56.4099L330.3 57.4089L331.419 58.4079C332.204 57.529 333.227 56.8305 334.529 56.3297L333.99 54.9297ZM330.3 57.4089L329.18 56.4117C326.991 58.8712 326.004 62.2662 326.004 66.3745H327.504H329.004C329.004 62.7184 329.881 60.1363 331.421 58.4061L330.3 57.4089ZM327.504 66.3745H326.004C326.004 71.1375 327.254 74.9685 330.026 77.56L331.05 76.4643L332.074 75.3686C330.118 73.5398 329.004 70.6443 329.004 66.3745H327.504ZM331.05 76.4643L330.022 77.5566C332.314 79.7141 335.304 80.7318 338.834 80.7318V79.2318V77.7318C335.906 77.7318 333.706 76.9046 332.078 75.372L331.05 76.4643ZM338.834 79.2318V80.7318C342.691 80.7318 345.974 79.9097 348.562 78.1334L347.713 76.8967L346.864 75.6601C344.916 76.9972 342.28 77.7318 338.834 77.7318V79.2318ZM347.713 76.8967L348.551 78.1403C349.533 77.4786 350.366 76.6555 351.047 75.6794L349.817 74.8211L348.587 73.9628C348.115 74.6395 347.546 75.2002 346.874 75.6531L347.713 76.8967ZM349.817 74.8211L348.985 76.0692L349.072 76.1268L349.904 74.8788L350.736 73.6307L350.649 73.573L349.817 74.8211ZM349.904 74.8788H348.404V82.9506H349.904H351.404V74.8788H349.904ZM349.904 82.9506L348.946 81.7965C346.347 83.9536 342.762 85.1118 338.026 85.1118V86.6118V88.1118C343.247 88.1118 347.58 86.8292 350.862 84.1048L349.904 82.9506ZM338.026 86.6118V85.1118C332.511 85.1118 328.356 83.374 325.366 80.0208L324.247 81.0192L323.127 82.0175C326.787 86.1212 331.818 88.1118 338.026 88.1118V86.6118ZM324.247 81.0192L325.363 80.0174C322.473 76.7962 320.961 72.4731 320.961 66.8934H319.461H317.961C317.961 73.0371 319.64 78.1312 323.13 82.0209L324.247 81.0192ZM319.461 66.8934H320.961C320.961 60.9781 322.619 56.4993 325.78 53.2689L324.708 52.2199L323.636 51.1708C319.801 55.0899 317.961 60.3934 317.961 66.8934H319.461ZM324.708 52.2199L325.777 53.2719C328.947 50.0505 333.638 48.329 340.102 48.329V46.829V45.329C333.113 45.329 327.541 47.2014 323.639 51.1678L324.708 52.2199ZM355.003 85.8911L353.519 85.6722L353.265 87.3911H355.003V85.8911ZM355.208 81.4836H353.708V81.5277L353.711 81.5717L355.208 81.4836ZM355.131 79.7667L356.628 79.667L356.625 79.6274L356.62 79.588L355.131 79.7667ZM355.054 79.1261V77.6261H353.363L353.565 79.3048L355.054 79.1261ZM362.485 79.1261L363.981 79.2442L364.109 77.6261H362.485V79.1261ZM362.409 80.7149L363.907 80.7862L363.909 80.7506V80.7149H362.409ZM362.357 81.7911L360.859 81.7198L360.857 81.7554V81.7911H362.357ZM362.485 85.8911V87.3911H364.208L363.971 85.6848L362.485 85.8911ZM355.003 85.8911L356.487 86.1101C356.648 85.0164 356.734 84.0183 356.734 83.1236H355.234H353.734C353.734 83.8347 353.665 84.6816 353.519 85.6722L355.003 85.8911ZM355.234 83.1236H356.734C356.734 82.3253 356.725 81.7363 356.705 81.3955L355.208 81.4836L353.711 81.5717C353.725 81.8117 353.734 82.3161 353.734 83.1236H355.234ZM355.208 81.4836H356.708C356.708 81.1484 356.699 80.82 356.68 80.4987L355.182 80.5867L353.685 80.6748C353.7 80.9343 353.708 81.2038 353.708 81.4836H355.208ZM355.182 80.5867L356.68 80.4987C356.662 80.2048 356.645 79.9276 356.628 79.667L355.131 79.7667L353.634 79.8665C353.651 80.1184 353.668 80.3878 353.685 80.6748L355.182 80.5867ZM355.131 79.7667L356.62 79.588L356.544 78.9474L355.054 79.1261L353.565 79.3048L353.642 79.9455L355.131 79.7667ZM355.054 79.1261V80.6261H362.485V79.1261V77.6261H355.054V79.1261ZM362.485 79.1261L360.99 79.0081C360.937 79.6766 360.909 80.2496 360.909 80.7149H362.409H363.909C363.909 80.3602 363.931 79.874 363.981 79.2442L362.485 79.1261ZM362.409 80.7149L360.91 80.6435L360.859 81.7198L362.357 81.7911L363.856 81.8625L363.907 80.7862L362.409 80.7149ZM362.357 81.7911H360.857C360.857 81.7917 360.857 81.7924 360.857 81.793C360.857 81.7937 360.857 81.7943 360.857 81.7949C360.857 81.7956 360.857 81.7962 360.857 81.7968C360.857 81.7975 360.857 81.7981 360.857 81.7988C360.857 81.7994 360.857 81.8001 360.857 81.8007C360.857 81.8013 360.857 81.802 360.857 81.8026C360.857 81.8033 360.857 81.8039 360.857 81.8046C360.857 81.8052 360.857 81.8059 360.857 81.8065C360.857 81.8072 360.857 81.8078 360.857 81.8085C360.857 81.8092 360.857 81.8098 360.857 81.8105C360.857 81.8111 360.857 81.8118 360.857 81.8124C360.857 81.8131 360.857 81.8138 360.857 81.8144C360.857 81.8151 360.857 81.8157 360.857 81.8164C360.857 81.8171 360.857 81.8177 360.857 81.8184C360.857 81.8191 360.857 81.8197 360.857 81.8204C360.857 81.8211 360.857 81.8217 360.857 81.8224C360.857 81.8231 360.857 81.8237 360.857 81.8244C360.857 81.8251 360.857 81.8257 360.857 81.8264C360.857 81.8271 360.857 81.8278 360.857 81.8284C360.857 81.8291 360.857 81.8298 360.857 81.8305C360.857 81.8312 360.857 81.8318 360.857 81.8325C360.857 81.8332 360.857 81.8339 360.857 81.8346C360.857 81.8352 360.857 81.8359 360.857 81.8366C360.857 81.8373 360.857 81.838 360.857 81.8387C360.857 81.8394 360.857 81.84 360.857 81.8407C360.857 81.8414 360.857 81.8421 360.857 81.8428C360.857 81.8435 360.857 81.8442 360.857 81.8449C360.857 81.8456 360.857 81.8463 360.857 81.847C360.857 81.8477 360.857 81.8484 360.857 81.8491C360.857 81.8498 360.857 81.8505 360.857 81.8512C360.857 81.8519 360.857 81.8526 360.857 81.8533C360.857 81.854 360.857 81.8547 360.857 81.8554C360.857 81.8561 360.857 81.8568 360.857 81.8575C360.857 81.8582 360.857 81.8589 360.857 81.8596C360.857 81.8603 360.857 81.861 360.857 81.8617C360.857 81.8625 360.857 81.8632 360.857 81.8639C360.857 81.8646 360.857 81.8653 360.857 81.866C360.857 81.8667 360.857 81.8675 360.857 81.8682C360.857 81.8689 360.857 81.8696 360.857 81.8703C360.857 81.8711 360.857 81.8718 360.857 81.8725C360.857 81.8732 360.857 81.874 360.857 81.8747C360.857 81.8754 360.857 81.8761 360.857 81.8769C360.857 81.8776 360.857 81.8783 360.857 81.879C360.857 81.8798 360.857 81.8805 360.857 81.8812C360.857 81.882 360.857 81.8827 360.857 81.8834C360.857 81.8842 360.857 81.8849 360.857 81.8856C360.857 81.8864 360.857 81.8871 360.857 81.8878C360.857 81.8886 360.857 81.8893 360.857 81.8901C360.857 81.8908 360.857 81.8915 360.857 81.8923C360.857 81.893 360.857 81.8938 360.857 81.8945C360.857 81.8953 360.857 81.896 360.857 81.8968C360.857 81.8975 360.857 81.8982 360.857 81.899C360.857 81.8997 360.857 81.9005 360.857 81.9012C360.857 81.902 360.857 81.9028 360.857 81.9035C360.857 81.9043 360.857 81.905 360.857 81.9058C360.857 81.9065 360.857 81.9073 360.857 81.908C360.857 81.9088 360.857 81.9096 360.857 81.9103C360.857 81.9111 360.857 81.9118 360.857 81.9126C360.857 81.9134 360.857 81.9141 360.857 81.9149C360.857 81.9157 360.857 81.9164 360.857 81.9172C360.857 81.918 360.857 81.9187 360.857 81.9195C360.857 81.9203 360.857 81.921 360.857 81.9218C360.857 81.9226 360.857 81.9233 360.857 81.9241C360.857 81.9249 360.857 81.9257 360.857 81.9264C360.857 81.9272 360.857 81.928 360.857 81.9288C360.857 81.9296 360.857 81.9303 360.857 81.9311C360.857 81.9319 360.857 81.9327 360.857 81.9335C360.857 81.9342 360.857 81.935 360.857 81.9358C360.857 81.9366 360.857 81.9374 360.857 81.9382C360.857 81.939 360.857 81.9397 360.857 81.9405C360.857 81.9413 360.857 81.9421 360.857 81.9429C360.857 81.9437 360.857 81.9445 360.857 81.9453C360.857 81.9461 360.857 81.9469 360.857 81.9477C360.857 81.9485 360.857 81.9493 360.857 81.9501C360.857 81.9508 360.857 81.9516 360.857 81.9524C360.857 81.9532 360.857 81.954 360.857 81.9548C360.857 81.9557 360.857 81.9565 360.857 81.9573C360.857 81.9581 360.857 81.9589 360.857 81.9597C360.857 81.9605 360.857 81.9613 360.857 81.9621C360.857 81.9629 360.857 81.9637 360.857 81.9645C360.857 81.9653 360.857 81.9662 360.857 81.967C360.857 81.9678 360.857 81.9686 360.857 81.9694C360.857 81.9702 360.857 81.971 360.857 81.9719C360.857 81.9727 360.857 81.9735 360.857 81.9743C360.857 81.9751 360.857 81.976 360.857 81.9768C360.857 81.9776 360.857 81.9784 360.857 81.9793C360.857 81.9801 360.857 81.9809 360.857 81.9817C360.857 81.9826 360.857 81.9834 360.857 81.9842C360.857 81.985 360.857 81.9859 360.857 81.9867C360.857 81.9875 360.857 81.9884 360.857 81.9892C360.857 81.99 360.857 81.9909 360.857 81.9917C360.857 81.9925 360.857 81.9934 360.857 81.9942C360.857 81.9951 360.857 81.9959 360.857 81.9967C360.857 81.9976 360.857 81.9984 360.857 81.9993C360.857 82.0001 360.857 82.0009 360.857 82.0018C360.857 82.0026 360.857 82.0035 360.857 82.0043C360.857 82.0052 360.857 82.006 360.857 82.0069C360.857 82.0077 360.857 82.0086 360.857 82.0094C360.857 82.0103 360.857 82.0111 360.857 82.012C360.857 82.0128 360.857 82.0137 360.857 82.0145C360.857 82.0154 360.857 82.0162 360.857 82.0171C360.857 82.018 360.857 82.0188 360.857 82.0197C360.857 82.0205 360.857 82.0214 360.857 82.0223C360.857 82.0231 360.857 82.024 360.857 82.0249C360.857 82.0257 360.857 82.0266 360.857 82.0275C360.857 82.0283 360.857 82.0292 360.857 82.0301C360.857 82.0309 360.857 82.0318 360.857 82.0327C360.857 82.0335 360.857 82.0344 360.857 82.0353C360.857 82.0362 360.857 82.037 360.857 82.0379C360.857 82.0388 360.857 82.0397 360.857 82.0405C360.857 82.0414 360.857 82.0423 360.857 82.0432C360.857 82.044 360.857 82.0449 360.857 82.0458C360.857 82.0467 360.857 82.0476 360.857 82.0485C360.857 82.0493 360.857 82.0502 360.857 82.0511C360.857 82.052 360.857 82.0529 360.857 82.0538C360.857 82.0547 360.857 82.0556 360.857 82.0564C360.857 82.0573 360.857 82.0582 360.857 82.0591C360.857 82.06 360.857 82.0609 360.857 82.0618C360.857 82.0627 360.857 82.0636 360.857 82.0645C360.857 82.0654 360.857 82.0663 360.857 82.0672C360.857 82.0681 360.857 82.069 360.857 82.0699C360.857 82.0708 360.857 82.0717 360.857 82.0726C360.857 82.0735 360.857 82.0744 360.857 82.0753C360.857 82.0762 360.857 82.0771 360.857 82.078C360.857 82.079 360.857 82.0799 360.857 82.0808C360.857 82.0817 360.857 82.0826 360.857 82.0835C360.857 82.0844 360.857 82.0853 360.857 82.0863C360.857 82.0872 360.857 82.0881 360.857 82.089C360.857 82.0899 360.857 82.0908 360.857 82.0918C360.857 82.0927 360.857 82.0936 360.857 82.0945C360.857 82.0954 360.857 82.0964 360.857 82.0973C360.857 82.0982 360.857 82.0991 360.857 82.1001C360.857 82.101 360.857 82.1019 360.857 82.1029C360.857 82.1038 360.857 82.1047 360.857 82.1056C360.857 82.1066 360.857 82.1075 360.857 82.1084C360.857 82.1094 360.857 82.1103 360.857 82.1112C360.857 82.1122 360.857 82.1131 360.857 82.114C360.857 82.115 360.857 82.1159 360.857 82.1169C360.857 82.1178 360.857 82.1187 360.857 82.1197C360.857 82.1206 360.857 82.1216 360.857 82.1225C360.857 82.1235 360.857 82.1244 360.857 82.1254C360.857 82.1263 360.857 82.1272 360.857 82.1282C360.857 82.1291 360.857 82.1301 360.857 82.131C360.857 82.132 360.857 82.1329 360.857 82.1339C360.857 82.1348 360.857 82.1358 360.857 82.1368C360.857 82.1377 360.857 82.1387 360.857 82.1396C360.857 82.1406 360.857 82.1415 360.857 82.1425C360.857 82.1435 360.857 82.1444 360.857 82.1454C360.857 82.1463 360.857 82.1473 360.857 82.1483C360.857 82.1492 360.857 82.1502 360.857 82.1512C360.857 82.1521 360.857 82.1531 360.857 82.1541C360.857 82.155 360.857 82.156 360.857 82.157C360.857 82.158 360.857 82.1589 360.857 82.1599C360.857 82.1609 360.857 82.1618 360.857 82.1628C360.857 82.1638 360.857 82.1648 360.857 82.1657C360.857 82.1667 360.857 82.1677 360.857 82.1687C360.857 82.1697 360.857 82.1706 360.857 82.1716C360.857 82.1726 360.857 82.1736 360.857 82.1746C360.857 82.1756 360.857 82.1765 360.857 82.1775C360.857 82.1785 360.857 82.1795 360.857 82.1805C360.857 82.1815 360.857 82.1825 360.857 82.1835C360.857 82.1845 360.857 82.1854 360.857 82.1864C360.857 82.1874 360.857 82.1884 360.857 82.1894C360.857 82.1904 360.857 82.1914 360.857 82.1924C360.857 82.1934 360.857 82.1944 360.857 82.1954C360.857 82.1964 360.857 82.1974 360.857 82.1984C360.857 82.1994 360.857 82.2004 360.857 82.2014C360.857 82.2024 360.857 82.2034 360.857 82.2044C360.857 82.2054 360.857 82.2064 360.857 82.2075C360.857 82.2085 360.857 82.2095 360.857 82.2105C360.857 82.2115 360.857 82.2125 360.857 82.2135C360.857 82.2145 360.857 82.2155 360.857 82.2166C360.857 82.2176 360.857 82.2186 360.857 82.2196C360.857 82.2206 360.857 82.2216 360.857 82.2227C360.857 82.2237 360.857 82.2247 360.857 82.2257C360.857 82.2267 360.857 82.2278 360.857 82.2288C360.857 82.2298 360.857 82.2308 360.857 82.2319C360.857 82.2329 360.857 82.2339 360.857 82.2349C360.857 82.236 360.857 82.237 360.857 82.238C360.857 82.2391 360.857 82.2401 360.857 82.2411C360.857 82.2422 360.857 82.2432 360.857 82.2442C360.857 82.2453 360.857 82.2463 360.857 82.2473C360.857 82.2484 360.857 82.2494 360.857 82.2505C360.857 82.2515 360.857 82.2525 360.857 82.2536C360.857 82.2546 360.857 82.2557 360.857 82.2567C360.857 82.2577 360.857 82.2588 360.857 82.2598C360.857 82.2609 360.857 82.2619 360.857 82.263C360.857 82.264 360.857 82.2651 360.857 82.2661C360.857 82.2672 360.857 82.2682 360.857 82.2693C360.857 82.2703 360.857 82.2714 360.857 82.2724C360.857 82.2735 360.857 82.2746 360.857 82.2756C360.857 82.2767 360.857 82.2777 360.857 82.2788C360.857 82.2799 360.857 82.2809 360.857 82.282C360.857 82.283 360.857 82.2841 360.857 82.2852C360.857 82.2862 360.857 82.2873 360.857 82.2884C360.857 82.2894 360.857 82.2905 360.857 82.2916C360.857 82.2926 360.857 82.2937 360.857 82.2948C360.857 82.2958 360.857 82.2969 360.857 82.298C360.857 82.299 360.857 82.3001 360.857 82.3012C360.857 82.3023 360.857 82.3033 360.857 82.3044C360.857 82.3055 360.857 82.3066 360.857 82.3077C360.857 82.3087 360.857 82.3098 360.857 82.3109C360.857 82.312 360.857 82.3131 360.857 82.3142C360.857 82.3152 360.857 82.3163 360.857 82.3174C360.857 82.3185 360.857 82.3196 360.857 82.3207C360.857 82.3218 360.857 82.3228 360.857 82.3239C360.857 82.325 360.857 82.3261 360.857 82.3272C360.857 82.3283 360.857 82.3294 360.857 82.3305C360.857 82.3316 360.857 82.3327 360.857 82.3338C360.857 82.3349 360.857 82.336 360.857 82.3371C360.857 82.3382 360.857 82.3393 360.857 82.3404C360.857 82.3415 360.857 82.3426 360.857 82.3437C360.857 82.3448 360.857 82.3459 360.857 82.347C360.857 82.3481 360.857 82.3492 360.857 82.3503C360.857 82.3514 360.857 82.3525 360.857 82.3536C360.857 82.3548 360.857 82.3559 360.857 82.357C360.857 82.3581 360.857 82.3592 360.857 82.3603C360.857 82.3614 360.857 82.3625 360.857 82.3637C360.857 82.3648 360.857 82.3659 360.857 82.367C360.857 82.3681 360.857 82.3693 360.857 82.3704C360.857 82.3715 360.857 82.3726 360.857 82.3737C360.857 82.3749 360.857 82.376 360.857 82.3771C360.857 82.3783 360.857 82.3794 360.857 82.3805C360.857 82.3816 360.857 82.3828 360.857 82.3839C360.857 82.385 360.857 82.3862 360.857 82.3873C360.857 82.3884 360.857 82.3896 360.857 82.3907C360.857 82.3918 360.857 82.393 360.857 82.3941C360.857 82.3952 360.857 82.3964 360.857 82.3975C360.857 82.3986 360.857 82.3998 360.857 82.4009C360.857 82.4021 360.857 82.4032 360.857 82.4044C360.857 82.4055 360.857 82.4066 360.857 82.4078C360.857 82.4089 360.857 82.4101 360.857 82.4112C360.857 82.4124 360.857 82.4135 360.857 82.4147C360.857 82.4158 360.857 82.417 360.857 82.4181C360.857 82.4193 360.857 82.4204 360.857 82.4216C360.857 82.4227 360.857 82.4239 360.857 82.4251C360.857 82.4262 360.857 82.4274 360.857 82.4285C360.857 82.4297 360.857 82.4309 360.857 82.432C360.857 82.4332 360.857 82.4343 360.857 82.4355C360.857 82.4367 360.857 82.4378 360.857 82.439C360.857 82.4402 360.857 82.4413 360.857 82.4425C360.857 82.4437 360.857 82.4448 360.857 82.446C360.857 82.4472 360.857 82.4483 360.857 82.4495C360.857 82.4507 360.857 82.4519 360.857 82.453C360.857 82.4542 360.857 82.4554 360.857 82.4566C360.857 82.4577 360.857 82.4589 360.857 82.4601C360.857 82.4613 360.857 82.4625 360.857 82.4636C360.857 82.4648 360.857 82.466 360.857 82.4672C360.857 82.4684 360.857 82.4696 360.857 82.4707C360.857 82.4719 360.857 82.4731 360.857 82.4743C360.857 82.4755 360.857 82.4767 360.857 82.4779C360.857 82.4791 360.857 82.4802 360.857 82.4814C360.857 82.4826 360.857 82.4838 360.857 82.485C360.857 82.4862 360.857 82.4874 360.857 82.4886C360.857 82.4898 360.857 82.491 360.857 82.4922C360.857 82.4934 360.857 82.4946 360.857 82.4958C360.857 82.497 360.857 82.4982 360.857 82.4994C360.857 82.5006 360.857 82.5018 360.857 82.503C360.857 82.5042 360.857 82.5054 360.857 82.5066C360.857 82.5079 360.857 82.5091 360.857 82.5103C360.857 82.5115 360.857 82.5127 360.857 82.5139C360.857 82.5151 360.857 82.5163 360.857 82.5175C360.857 82.5188 360.857 82.52 360.857 82.5212C360.857 82.5224 360.857 82.5236 360.857 82.5248C360.857 82.5261 360.857 82.5273 360.857 82.5285C360.857 82.5297 360.857 82.5309 360.857 82.5322C360.857 82.5334 360.857 82.5346 360.857 82.5358C360.857 82.5371 360.857 82.5383 360.857 82.5395C360.857 82.5407 360.857 82.542 360.857 82.5432C360.857 82.5444 360.857 82.5457 360.857 82.5469C360.857 82.5481 360.857 82.5494 360.857 82.5506C360.857 82.5518 360.857 82.5531 360.857 82.5543C360.857 82.5555 360.857 82.5568 360.857 82.558C360.857 82.5593 360.857 82.5605 360.857 82.5617C360.857 82.563 360.857 82.5642 360.857 82.5655C360.857 82.5667 360.857 82.568 360.857 82.5692C360.857 82.5704 360.857 82.5717 360.857 82.5729C360.857 82.5742 360.857 82.5754 360.857 82.5767C360.857 82.5779 360.857 82.5792 360.857 82.5804C360.857 82.5817 360.857 82.5829 360.857 82.5842C360.857 82.5855 360.857 82.5867 360.857 82.588C360.857 82.5892 360.857 82.5905 360.857 82.5917C360.857 82.593 360.857 82.5943 360.857 82.5955C360.857 82.5968 360.857 82.598 360.857 82.5993C360.857 82.6006 360.857 82.6018 360.857 82.6031C360.857 82.6044 360.857 82.6056 360.857 82.6069C360.857 82.6082 360.857 82.6094 360.857 82.6107C360.857 82.612 360.857 82.6132 360.857 82.6145C360.857 82.6158 360.857 82.6171 360.857 82.6183C360.857 82.6196 360.857 82.6209 360.857 82.6222C360.857 82.6234 360.857 82.6247 360.857 82.626C360.857 82.6273 360.857 82.6286 360.857 82.6298C360.857 82.6311 360.857 82.6324 360.857 82.6337C360.857 82.635 360.857 82.6362 360.857 82.6375C360.857 82.6388 360.857 82.6401 360.857 82.6414C360.857 82.6427 360.857 82.644 360.857 82.6453C360.857 82.6465 360.857 82.6478 360.857 82.6491C360.857 82.6504 360.857 82.6517 360.857 82.653C360.857 82.6543 360.857 82.6556 360.857 82.6569C360.857 82.6582 360.857 82.6595 360.857 82.6608C360.857 82.6621 360.857 82.6634 360.857 82.6647C360.857 82.666 360.857 82.6673 360.857 82.6686C360.857 82.6699 360.857 82.6712 360.857 82.6725C360.857 82.6738 360.857 82.6751 360.857 82.6764C360.857 82.6777 360.857 82.679 360.857 82.6804C360.857 82.6817 360.857 82.683 360.857 82.6843C360.857 82.6856 360.857 82.6869 360.857 82.6882C360.857 82.6895 360.857 82.6909 360.857 82.6922C360.857 82.6935 360.857 82.6948 360.857 82.6961C360.857 82.6974 360.857 82.6988 360.857 82.7001C360.857 82.7014 360.857 82.7027 360.857 82.704C360.857 82.7054 360.857 82.7067 360.857 82.708C360.857 82.7093 360.857 82.7107 360.857 82.712C360.857 82.7133 360.857 82.7147 360.857 82.716C360.857 82.7173 360.857 82.7186 360.857 82.72C360.857 82.7213 360.857 82.7226 360.857 82.724C360.857 82.7253 360.857 82.7266 360.857 82.728C360.857 82.7293 360.857 82.7307 360.857 82.732C360.857 82.7333 360.857 82.7347 360.857 82.736C360.857 82.7374 360.857 82.7387 360.857 82.74C360.857 82.7414 360.857 82.7427 360.857 82.7441C360.857 82.7454 360.857 82.7468 360.857 82.7481C360.857 82.7495 360.857 82.7508 360.857 82.7522C360.857 82.7535 360.857 82.7549 360.857 82.7562C360.857 82.7576 360.857 82.7589 360.857 82.7603C360.857 82.7616 360.857 82.763 360.857 82.7643C360.857 82.7657 360.857 82.767 360.857 82.7684C360.857 82.7698 360.857 82.7711 360.857 82.7725C360.857 82.7738 360.857 82.7752 360.857 82.7766C360.857 82.7779 360.857 82.7793 360.857 82.7807C360.857 82.782 360.857 82.7834 360.857 82.7848C360.857 82.7861 360.857 82.7875 360.857 82.7889C360.857 82.7902 360.857 82.7916 360.857 82.793C360.857 82.7943 360.857 82.7957 360.857 82.7971C360.857 82.7985 360.857 82.7998 360.857 82.8012C360.857 82.8026 360.857 82.804 360.857 82.8054C360.857 82.8067 360.857 82.8081 360.857 82.8095C360.857 82.8109 360.857 82.8123 360.857 82.8136C360.857 82.815 360.857 82.8164 360.857 82.8178C360.857 82.8192 360.857 82.8206 360.857 82.8219C360.857 82.8233 360.857 82.8247 360.857 82.8261C360.857 82.8275 360.857 82.8289 360.857 82.8303C360.857 82.8317 360.857 82.8331 360.857 82.8345C360.857 82.8359 360.857 82.8372 360.857 82.8386C360.857 82.84 360.857 82.8414 360.857 82.8428C360.857 82.8442 360.857 82.8456 360.857 82.847C360.857 82.8484 360.857 82.8498 360.857 82.8512C360.857 82.8526 360.857 82.854 360.857 82.8555C360.857 82.8569 360.857 82.8583 360.857 82.8597C360.857 82.8611 360.857 82.8625 360.857 82.8639C360.857 82.8653 360.857 82.8667 360.857 82.8681C360.857 82.8695 360.857 82.871 360.857 82.8724C360.857 82.8738 360.857 82.8752 360.857 82.8766C360.857 82.878 360.857 82.8794 360.857 82.8809C360.857 82.8823 360.857 82.8837 360.857 82.8851C360.857 82.8865 360.857 82.888 360.857 82.8894C360.857 82.8908 360.857 82.8922 360.857 82.8937C360.857 82.8951 360.857 82.8965 360.857 82.8979C360.857 82.8994 360.857 82.9008 360.857 82.9022C360.857 82.9037 360.857 82.9051 360.857 82.9065C360.857 82.9079 360.857 82.9094 360.857 82.9108C360.857 82.9122 360.857 82.9137 360.857 82.9151C360.857 82.9166 360.857 82.918 360.857 82.9194C360.857 82.9209 360.857 82.9223 360.857 82.9237C360.857 82.9252 360.857 82.9266 360.857 82.9281C360.857 82.9295 360.857 82.931 360.857 82.9324C360.857 82.9338 360.857 82.9353 360.857 82.9367C360.857 82.9382 360.857 82.9396 360.857 82.9411C360.857 82.9425 360.857 82.944 360.857 82.9454C360.857 82.9469 360.857 82.9483 360.857 82.9498C360.857 82.9512 360.857 82.9527 360.857 82.9542C360.857 82.9556 360.857 82.9571 360.857 82.9585C360.857 82.96 360.857 82.9614 360.857 82.9629C360.857 82.9644 360.857 82.9658 360.857 82.9673C360.857 82.9688 360.857 82.9702 360.857 82.9717C360.857 82.9731 360.857 82.9746 360.857 82.9761C360.857 82.9776 360.857 82.979 360.857 82.9805C360.857 82.982 360.857 82.9834 360.857 82.9849C360.857 82.9864 360.857 82.9878 360.857 82.9893C360.857 82.9908 360.857 82.9923 360.857 82.9937C360.857 82.9952 360.857 82.9967 360.857 82.9982C360.857 82.9996 360.857 83.0011 360.857 83.0026C360.857 83.0041 360.857 83.0056 360.857 83.0071C360.857 83.0085 360.857 83.01 360.857 83.0115C360.857 83.013 360.857 83.0145 360.857 83.016C360.857 83.0174 360.857 83.0189 360.857 83.0204C360.857 83.0219 360.857 83.0234 360.857 83.0249C360.857 83.0264 360.857 83.0279 360.857 83.0294C360.857 83.0309 360.857 83.0324 360.857 83.0339C360.857 83.0354 360.857 83.0368 360.857 83.0383C360.857 83.0398 360.857 83.0413 360.857 83.0428C360.857 83.0443 360.857 83.0458 360.857 83.0474C360.857 83.0489 360.857 83.0504 360.857 83.0519C360.857 83.0534 360.857 83.0549 360.857 83.0564C360.857 83.0579 360.857 83.0594 360.857 83.0609C360.857 83.0624 360.857 83.0639 360.857 83.0654C360.857 83.0669 360.857 83.0685 360.857 83.07C360.857 83.0715 360.857 83.073 360.857 83.0745C360.857 83.076 360.857 83.0775 360.857 83.0791C360.857 83.0806 360.857 83.0821 360.857 83.0836C360.857 83.0851 360.857 83.0867 360.857 83.0882C360.857 83.0897 360.857 83.0912 360.857 83.0928C360.857 83.0943 360.857 83.0958 360.857 83.0973C360.857 83.0989 360.857 83.1004 360.857 83.1019C360.857 83.1035 360.857 83.105 360.857 83.1065C360.857 83.108 360.857 83.1096 360.857 83.1111C360.857 83.1126 360.857 83.1142 360.857 83.1157C360.857 83.1172 360.857 83.1188 360.857 83.1203C360.857 83.1219 360.857 83.1234 360.857 83.1249C360.857 83.1265 360.857 83.128 360.857 83.1296C360.857 83.1311 360.857 83.1326 360.857 83.1342C360.857 83.1357 360.857 83.1373 360.857 83.1388C360.857 83.1404 360.857 83.1419 360.857 83.1435C360.857 83.145 360.857 83.1466 360.857 83.1481C360.857 83.1497 360.857 83.1512 360.857 83.1528C360.857 83.1543 360.857 83.1559 360.857 83.1574C360.857 83.159 360.857 83.1606 360.857 83.1621C360.857 83.1637 360.857 83.1652 360.857 83.1668C360.857 83.1684 360.857 83.1699 360.857 83.1715C360.857 83.173 360.857 83.1746 360.857 83.1762C360.857 83.1777 360.857 83.1793 360.857 83.1809C360.857 83.1824 360.857 83.184 360.857 83.1856C360.857 83.1871 360.857 83.1887 360.857 83.1903C360.857 83.1918 360.857 83.1934 360.857 83.195C360.857 83.1966 360.857 83.1981 360.857 83.1997C360.857 83.2013 360.857 83.2029 360.857 83.2044C360.857 83.206 360.857 83.2076 360.857 83.2092C360.857 83.2108 360.857 83.2123 360.857 83.2139C360.857 83.2155 360.857 83.2171 360.857 83.2187C360.857 83.2203 360.857 83.2219 360.857 83.2234C360.857 83.225 360.857 83.2266 360.857 83.2282C360.857 83.2298 360.857 83.2314 360.857 83.233C360.857 83.2346 360.857 83.2362 360.857 83.2377C360.857 83.2393 360.857 83.2409 360.857 83.2425C360.857 83.2441 360.857 83.2457 360.857 83.2473C360.857 83.2489 360.857 83.2505 360.857 83.2521C360.857 83.2537 360.857 83.2553 360.857 83.2569C360.857 83.2585 360.857 83.2601 360.857 83.2617C360.857 83.2633 360.857 83.2649 360.857 83.2665C360.857 83.2682 360.857 83.2698 360.857 83.2714C360.857 83.273 360.857 83.2746 360.857 83.2762C360.857 83.2778 360.857 83.2794 360.857 83.281C360.857 83.2826 360.857 83.2843 360.857 83.2859C360.857 83.2875 360.857 83.2891 360.857 83.2907C360.857 83.2923 360.857 83.294 360.857 83.2956C360.857 83.2972 360.857 83.2988 360.857 83.3004C360.857 83.3021 360.857 83.3037 360.857 83.3053C360.857 83.3069 360.857 83.3086 360.857 83.3102C360.857 83.3118 360.857 83.3134 360.857 83.3151C360.857 83.3167 360.857 83.3183 360.857 83.32C360.857 83.3216 360.857 83.3232 360.857 83.3249C360.857 83.3265 360.857 83.3281 360.857 83.3298C360.857 83.3314 360.857 83.333 360.857 83.3347C360.857 83.3363 360.857 83.338 360.857 83.3396C360.857 83.3412 360.857 83.3429 360.857 83.3445C360.857 83.3462 360.857 83.3478 360.857 83.3494C360.857 83.3511 360.857 83.3527 360.857 83.3544C360.857 83.356 360.857 83.3577 360.857 83.3593C360.857 83.361 360.857 83.3626 360.857 83.3643C360.857 83.3659 360.857 83.3676 360.857 83.3692C360.857 83.3709 360.857 83.3725 360.857 83.3742C360.857 83.3759 360.857 83.3775 360.857 83.3792C360.857 83.3808 360.857 83.3825 360.857 83.3841C360.857 83.3858 360.857 83.3875 360.857 83.3891C360.857 83.3908 360.857 83.3924 360.857 83.3941C360.857 83.3958 360.857 83.3974 360.857 83.3991C360.857 83.4008 360.857 83.4024 360.857 83.4041C360.857 83.4058 360.857 83.4074 360.857 83.4091C360.857 83.4108 360.857 83.4125 360.857 83.4141C360.857 83.4158 360.857 83.4175 360.857 83.4192C360.857 83.4208 360.857 83.4225 360.857 83.4242C360.857 83.4259 360.857 83.4275 360.857 83.4292C360.857 83.4309 360.857 83.4326 360.857 83.4343C360.857 83.4359 360.857 83.4376 360.857 83.4393C360.857 83.441 360.857 83.4427 360.857 83.4444C360.857 83.4461 360.857 83.4477 360.857 83.4494C360.857 83.4511 360.857 83.4528 360.857 83.4545C360.857 83.4562 360.857 83.4579 360.857 83.4596C360.857 83.4613 360.857 83.463 360.857 83.4647C360.857 83.4664 360.857 83.4681 360.857 83.4697C360.857 83.4714 360.857 83.4731 360.857 83.4748C360.857 83.4765 360.857 83.4782 360.857 83.4799C360.857 83.4817 360.857 83.4834 360.857 83.4851C360.857 83.4868 360.857 83.4885 360.857 83.4902C360.857 83.4919 360.857 83.4936 360.857 83.4953C360.857 83.497 360.857 83.4987 360.857 83.5004C360.857 83.5021 360.857 83.5038 360.857 83.5056C360.857 83.5073 360.857 83.509 360.857 83.5107C360.857 83.5124 360.857 83.5141 360.857 83.5159C360.857 83.5176 360.857 83.5193 360.857 83.521C360.857 83.5227 360.857 83.5244 360.857 83.5262C360.857 83.5279 360.857 83.5296 360.857 83.5313C360.857 83.5331 360.857 83.5348 360.857 83.5365C360.857 83.5382 360.857 83.54 360.857 83.5417C360.857 83.5434 360.857 83.5452 360.857 83.5469C360.857 83.5486 360.857 83.5503 360.857 83.5521C360.857 83.5538 360.857 83.5555 360.857 83.5573C360.857 83.559 360.857 83.5608 360.857 83.5625C360.857 83.5642 360.857 83.566 360.857 83.5677C360.857 83.5694 360.857 83.5712 360.857 83.5729C360.857 83.5747 360.857 83.5764 360.857 83.5782C360.857 83.5799 360.857 83.5816 360.857 83.5834C360.857 83.5851 360.857 83.5869 360.857 83.5886C360.857 83.5904 360.857 83.5921 360.857 83.5939C360.857 83.5956 360.857 83.5974 360.857 83.5991C360.857 83.6009 360.857 83.6026 360.857 83.6044C360.857 83.6062 360.857 83.6079 360.857 83.6097C360.857 83.6114 360.857 83.6132 360.857 83.6149C360.857 83.6167 360.857 83.6185 360.857 83.6202C360.857 83.622 360.857 83.6238 360.857 83.6255C360.857 83.6273 360.857 83.629 360.857 83.6308C360.857 83.6326 360.857 83.6343 360.857 83.6361H362.357H363.857C363.857 83.6343 363.857 83.6326 363.857 83.6308C363.857 83.629 363.857 83.6273 363.857 83.6255C363.857 83.6238 363.857 83.622 363.857 83.6202C363.857 83.6185 363.857 83.6167 363.857 83.6149C363.857 83.6132 363.857 83.6114 363.857 83.6097C363.857 83.6079 363.857 83.6062 363.857 83.6044C363.857 83.6026 363.857 83.6009 363.857 83.5991C363.857 83.5974 363.857 83.5956 363.857 83.5939C363.857 83.5921 363.857 83.5904 363.857 83.5886C363.857 83.5869 363.857 83.5851 363.857 83.5834C363.857 83.5816 363.857 83.5799 363.857 83.5782C363.857 83.5764 363.857 83.5747 363.857 83.5729C363.857 83.5712 363.857 83.5694 363.857 83.5677C363.857 83.566 363.857 83.5642 363.857 83.5625C363.857 83.5608 363.857 83.559 363.857 83.5573C363.857 83.5555 363.857 83.5538 363.857 83.5521C363.857 83.5503 363.857 83.5486 363.857 83.5469C363.857 83.5452 363.857 83.5434 363.857 83.5417C363.857 83.54 363.857 83.5382 363.857 83.5365C363.857 83.5348 363.857 83.5331 363.857 83.5313C363.857 83.5296 363.857 83.5279 363.857 83.5262C363.857 83.5244 363.857 83.5227 363.857 83.521C363.857 83.5193 363.857 83.5176 363.857 83.5159C363.857 83.5141 363.857 83.5124 363.857 83.5107C363.857 83.509 363.857 83.5073 363.857 83.5056C363.857 83.5038 363.857 83.5021 363.857 83.5004C363.857 83.4987 363.857 83.497 363.857 83.4953C363.857 83.4936 363.857 83.4919 363.857 83.4902C363.857 83.4885 363.857 83.4868 363.857 83.4851C363.857 83.4834 363.857 83.4817 363.857 83.4799C363.857 83.4782 363.857 83.4765 363.857 83.4748C363.857 83.4731 363.857 83.4714 363.857 83.4697C363.857 83.4681 363.857 83.4664 363.857 83.4647C363.857 83.463 363.857 83.4613 363.857 83.4596C363.857 83.4579 363.857 83.4562 363.857 83.4545C363.857 83.4528 363.857 83.4511 363.857 83.4494C363.857 83.4477 363.857 83.4461 363.857 83.4444C363.857 83.4427 363.857 83.441 363.857 83.4393C363.857 83.4376 363.857 83.4359 363.857 83.4343C363.857 83.4326 363.857 83.4309 363.857 83.4292C363.857 83.4275 363.857 83.4259 363.857 83.4242C363.857 83.4225 363.857 83.4208 363.857 83.4192C363.857 83.4175 363.857 83.4158 363.857 83.4141C363.857 83.4125 363.857 83.4108 363.857 83.4091C363.857 83.4074 363.857 83.4058 363.857 83.4041C363.857 83.4024 363.857 83.4008 363.857 83.3991C363.857 83.3974 363.857 83.3958 363.857 83.3941C363.857 83.3924 363.857 83.3908 363.857 83.3891C363.857 83.3875 363.857 83.3858 363.857 83.3841C363.857 83.3825 363.857 83.3808 363.857 83.3792C363.857 83.3775 363.857 83.3759 363.857 83.3742C363.857 83.3725 363.857 83.3709 363.857 83.3692C363.857 83.3676 363.857 83.3659 363.857 83.3643C363.857 83.3626 363.857 83.361 363.857 83.3593C363.857 83.3577 363.857 83.356 363.857 83.3544C363.857 83.3527 363.857 83.3511 363.857 83.3494C363.857 83.3478 363.857 83.3462 363.857 83.3445C363.857 83.3429 363.857 83.3412 363.857 83.3396C363.857 83.338 363.857 83.3363 363.857 83.3347C363.857 83.333 363.857 83.3314 363.857 83.3298C363.857 83.3281 363.857 83.3265 363.857 83.3249C363.857 83.3232 363.857 83.3216 363.857 83.32C363.857 83.3183 363.857 83.3167 363.857 83.3151C363.857 83.3134 363.857 83.3118 363.857 83.3102C363.857 83.3086 363.857 83.3069 363.857 83.3053C363.857 83.3037 363.857 83.3021 363.857 83.3004C363.857 83.2988 363.857 83.2972 363.857 83.2956C363.857 83.294 363.857 83.2923 363.857 83.2907C363.857 83.2891 363.857 83.2875 363.857 83.2859C363.857 83.2843 363.857 83.2826 363.857 83.281C363.857 83.2794 363.857 83.2778 363.857 83.2762C363.857 83.2746 363.857 83.273 363.857 83.2714C363.857 83.2698 363.857 83.2682 363.857 83.2665C363.857 83.2649 363.857 83.2633 363.857 83.2617C363.857 83.2601 363.857 83.2585 363.857 83.2569C363.857 83.2553 363.857 83.2537 363.857 83.2521C363.857 83.2505 363.857 83.2489 363.857 83.2473C363.857 83.2457 363.857 83.2441 363.857 83.2425C363.857 83.2409 363.857 83.2393 363.857 83.2377C363.857 83.2362 363.857 83.2346 363.857 83.233C363.857 83.2314 363.857 83.2298 363.857 83.2282C363.857 83.2266 363.857 83.225 363.857 83.2234C363.857 83.2219 363.857 83.2203 363.857 83.2187C363.857 83.2171 363.857 83.2155 363.857 83.2139C363.857 83.2123 363.857 83.2108 363.857 83.2092C363.857 83.2076 363.857 83.206 363.857 83.2044C363.857 83.2029 363.857 83.2013 363.857 83.1997C363.857 83.1981 363.857 83.1966 363.857 83.195C363.857 83.1934 363.857 83.1918 363.857 83.1903C363.857 83.1887 363.857 83.1871 363.857 83.1856C363.857 83.184 363.857 83.1824 363.857 83.1809C363.857 83.1793 363.857 83.1777 363.857 83.1762C363.857 83.1746 363.857 83.173 363.857 83.1715C363.857 83.1699 363.857 83.1684 363.857 83.1668C363.857 83.1652 363.857 83.1637 363.857 83.1621C363.857 83.1606 363.857 83.159 363.857 83.1574C363.857 83.1559 363.857 83.1543 363.857 83.1528C363.857 83.1512 363.857 83.1497 363.857 83.1481C363.857 83.1466 363.857 83.145 363.857 83.1435C363.857 83.1419 363.857 83.1404 363.857 83.1388C363.857 83.1373 363.857 83.1357 363.857 83.1342C363.857 83.1326 363.857 83.1311 363.857 83.1296C363.857 83.128 363.857 83.1265 363.857 83.1249C363.857 83.1234 363.857 83.1219 363.857 83.1203C363.857 83.1188 363.857 83.1172 363.857 83.1157C363.857 83.1142 363.857 83.1126 363.857 83.1111C363.857 83.1096 363.857 83.108 363.857 83.1065C363.857 83.105 363.857 83.1035 363.857 83.1019C363.857 83.1004 363.857 83.0989 363.857 83.0973C363.857 83.0958 363.857 83.0943 363.857 83.0928C363.857 83.0912 363.857 83.0897 363.857 83.0882C363.857 83.0867 363.857 83.0851 363.857 83.0836C363.857 83.0821 363.857 83.0806 363.857 83.0791C363.857 83.0775 363.857 83.076 363.857 83.0745C363.857 83.073 363.857 83.0715 363.857 83.07C363.857 83.0685 363.857 83.0669 363.857 83.0654C363.857 83.0639 363.857 83.0624 363.857 83.0609C363.857 83.0594 363.857 83.0579 363.857 83.0564C363.857 83.0549 363.857 83.0534 363.857 83.0519C363.857 83.0504 363.857 83.0489 363.857 83.0474C363.857 83.0458 363.857 83.0443 363.857 83.0428C363.857 83.0413 363.857 83.0398 363.857 83.0383C363.857 83.0368 363.857 83.0354 363.857 83.0339C363.857 83.0324 363.857 83.0309 363.857 83.0294C363.857 83.0279 363.857 83.0264 363.857 83.0249C363.857 83.0234 363.857 83.0219 363.857 83.0204C363.857 83.0189 363.857 83.0174 363.857 83.016C363.857 83.0145 363.857 83.013 363.857 83.0115C363.857 83.01 363.857 83.0085 363.857 83.0071C363.857 83.0056 363.857 83.0041 363.857 83.0026C363.857 83.0011 363.857 82.9996 363.857 82.9982C363.857 82.9967 363.857 82.9952 363.857 82.9937C363.857 82.9923 363.857 82.9908 363.857 82.9893C363.857 82.9878 363.857 82.9864 363.857 82.9849C363.857 82.9834 363.857 82.982 363.857 82.9805C363.857 82.979 363.857 82.9776 363.857 82.9761C363.857 82.9746 363.857 82.9731 363.857 82.9717C363.857 82.9702 363.857 82.9688 363.857 82.9673C363.857 82.9658 363.857 82.9644 363.857 82.9629C363.857 82.9614 363.857 82.96 363.857 82.9585C363.857 82.9571 363.857 82.9556 363.857 82.9542C363.857 82.9527 363.857 82.9512 363.857 82.9498C363.857 82.9483 363.857 82.9469 363.857 82.9454C363.857 82.944 363.857 82.9425 363.857 82.9411C363.857 82.9396 363.857 82.9382 363.857 82.9367C363.857 82.9353 363.857 82.9338 363.857 82.9324C363.857 82.931 363.857 82.9295 363.857 82.9281C363.857 82.9266 363.857 82.9252 363.857 82.9237C363.857 82.9223 363.857 82.9209 363.857 82.9194C363.857 82.918 363.857 82.9166 363.857 82.9151C363.857 82.9137 363.857 82.9122 363.857 82.9108C363.857 82.9094 363.857 82.9079 363.857 82.9065C363.857 82.9051 363.857 82.9037 363.857 82.9022C363.857 82.9008 363.857 82.8994 363.857 82.8979C363.857 82.8965 363.857 82.8951 363.857 82.8937C363.857 82.8922 363.857 82.8908 363.857 82.8894C363.857 82.888 363.857 82.8865 363.857 82.8851C363.857 82.8837 363.857 82.8823 363.857 82.8809C363.857 82.8794 363.857 82.878 363.857 82.8766C363.857 82.8752 363.857 82.8738 363.857 82.8724C363.857 82.871 363.857 82.8695 363.857 82.8681C363.857 82.8667 363.857 82.8653 363.857 82.8639C363.857 82.8625 363.857 82.8611 363.857 82.8597C363.857 82.8583 363.857 82.8569 363.857 82.8555C363.857 82.854 363.857 82.8526 363.857 82.8512C363.857 82.8498 363.857 82.8484 363.857 82.847C363.857 82.8456 363.857 82.8442 363.857 82.8428C363.857 82.8414 363.857 82.84 363.857 82.8386C363.857 82.8372 363.857 82.8359 363.857 82.8345C363.857 82.8331 363.857 82.8317 363.857 82.8303C363.857 82.8289 363.857 82.8275 363.857 82.8261C363.857 82.8247 363.857 82.8233 363.857 82.8219C363.857 82.8206 363.857 82.8192 363.857 82.8178C363.857 82.8164 363.857 82.815 363.857 82.8136C363.857 82.8123 363.857 82.8109 363.857 82.8095C363.857 82.8081 363.857 82.8067 363.857 82.8054C363.857 82.804 363.857 82.8026 363.857 82.8012C363.857 82.7998 363.857 82.7985 363.857 82.7971C363.857 82.7957 363.857 82.7943 363.857 82.793C363.857 82.7916 363.857 82.7902 363.857 82.7889C363.857 82.7875 363.857 82.7861 363.857 82.7848C363.857 82.7834 363.857 82.782 363.857 82.7807C363.857 82.7793 363.857 82.7779 363.857 82.7766C363.857 82.7752 363.857 82.7738 363.857 82.7725C363.857 82.7711 363.857 82.7698 363.857 82.7684C363.857 82.767 363.857 82.7657 363.857 82.7643C363.857 82.763 363.857 82.7616 363.857 82.7603C363.857 82.7589 363.857 82.7576 363.857 82.7562C363.857 82.7549 363.857 82.7535 363.857 82.7522C363.857 82.7508 363.857 82.7495 363.857 82.7481C363.857 82.7468 363.857 82.7454 363.857 82.7441C363.857 82.7427 363.857 82.7414 363.857 82.74C363.857 82.7387 363.857 82.7374 363.857 82.736C363.857 82.7347 363.857 82.7333 363.857 82.732C363.857 82.7307 363.857 82.7293 363.857 82.728C363.857 82.7266 363.857 82.7253 363.857 82.724C363.857 82.7226 363.857 82.7213 363.857 82.72C363.857 82.7186 363.857 82.7173 363.857 82.716C363.857 82.7147 363.857 82.7133 363.857 82.712C363.857 82.7107 363.857 82.7093 363.857 82.708C363.857 82.7067 363.857 82.7054 363.857 82.704C363.857 82.7027 363.857 82.7014 363.857 82.7001C363.857 82.6988 363.857 82.6974 363.857 82.6961C363.857 82.6948 363.857 82.6935 363.857 82.6922C363.857 82.6909 363.857 82.6895 363.857 82.6882C363.857 82.6869 363.857 82.6856 363.857 82.6843C363.857 82.683 363.857 82.6817 363.857 82.6804C363.857 82.679 363.857 82.6777 363.857 82.6764C363.857 82.6751 363.857 82.6738 363.857 82.6725C363.857 82.6712 363.857 82.6699 363.857 82.6686C363.857 82.6673 363.857 82.666 363.857 82.6647C363.857 82.6634 363.857 82.6621 363.857 82.6608C363.857 82.6595 363.857 82.6582 363.857 82.6569C363.857 82.6556 363.857 82.6543 363.857 82.653C363.857 82.6517 363.857 82.6504 363.857 82.6491C363.857 82.6478 363.857 82.6465 363.857 82.6453C363.857 82.644 363.857 82.6427 363.857 82.6414C363.857 82.6401 363.857 82.6388 363.857 82.6375C363.857 82.6362 363.857 82.635 363.857 82.6337C363.857 82.6324 363.857 82.6311 363.857 82.6298C363.857 82.6286 363.857 82.6273 363.857 82.626C363.857 82.6247 363.857 82.6234 363.857 82.6222C363.857 82.6209 363.857 82.6196 363.857 82.6183C363.857 82.6171 363.857 82.6158 363.857 82.6145C363.857 82.6132 363.857 82.612 363.857 82.6107C363.857 82.6094 363.857 82.6082 363.857 82.6069C363.857 82.6056 363.857 82.6044 363.857 82.6031C363.857 82.6018 363.857 82.6006 363.857 82.5993C363.857 82.598 363.857 82.5968 363.857 82.5955C363.857 82.5943 363.857 82.593 363.857 82.5917C363.857 82.5905 363.857 82.5892 363.857 82.588C363.857 82.5867 363.857 82.5855 363.857 82.5842C363.857 82.5829 363.857 82.5817 363.857 82.5804C363.857 82.5792 363.857 82.5779 363.857 82.5767C363.857 82.5754 363.857 82.5742 363.857 82.5729C363.857 82.5717 363.857 82.5704 363.857 82.5692C363.857 82.568 363.857 82.5667 363.857 82.5655C363.857 82.5642 363.857 82.563 363.857 82.5617C363.857 82.5605 363.857 82.5593 363.857 82.558C363.857 82.5568 363.857 82.5555 363.857 82.5543C363.857 82.5531 363.857 82.5518 363.857 82.5506C363.857 82.5494 363.857 82.5481 363.857 82.5469C363.857 82.5457 363.857 82.5444 363.857 82.5432C363.857 82.542 363.857 82.5407 363.857 82.5395C363.857 82.5383 363.857 82.5371 363.857 82.5358C363.857 82.5346 363.857 82.5334 363.857 82.5322C363.857 82.5309 363.857 82.5297 363.857 82.5285C363.857 82.5273 363.857 82.5261 363.857 82.5248C363.857 82.5236 363.857 82.5224 363.857 82.5212C363.857 82.52 363.857 82.5188 363.857 82.5175C363.857 82.5163 363.857 82.5151 363.857 82.5139C363.857 82.5127 363.857 82.5115 363.857 82.5103C363.857 82.5091 363.857 82.5079 363.857 82.5066C363.857 82.5054 363.857 82.5042 363.857 82.503C363.857 82.5018 363.857 82.5006 363.857 82.4994C363.857 82.4982 363.857 82.497 363.857 82.4958C363.857 82.4946 363.857 82.4934 363.857 82.4922C363.857 82.491 363.857 82.4898 363.857 82.4886C363.857 82.4874 363.857 82.4862 363.857 82.485C363.857 82.4838 363.857 82.4826 363.857 82.4814C363.857 82.4802 363.857 82.4791 363.857 82.4779C363.857 82.4767 363.857 82.4755 363.857 82.4743C363.857 82.4731 363.857 82.4719 363.857 82.4707C363.857 82.4696 363.857 82.4684 363.857 82.4672C363.857 82.466 363.857 82.4648 363.857 82.4636C363.857 82.4625 363.857 82.4613 363.857 82.4601C363.857 82.4589 363.857 82.4577 363.857 82.4566C363.857 82.4554 363.857 82.4542 363.857 82.453C363.857 82.4519 363.857 82.4507 363.857 82.4495C363.857 82.4483 363.857 82.4472 363.857 82.446C363.857 82.4448 363.857 82.4437 363.857 82.4425C363.857 82.4413 363.857 82.4402 363.857 82.439C363.857 82.4378 363.857 82.4367 363.857 82.4355C363.857 82.4343 363.857 82.4332 363.857 82.432C363.857 82.4309 363.857 82.4297 363.857 82.4285C363.857 82.4274 363.857 82.4262 363.857 82.4251C363.857 82.4239 363.857 82.4227 363.857 82.4216C363.857 82.4204 363.857 82.4193 363.857 82.4181C363.857 82.417 363.857 82.4158 363.857 82.4147C363.857 82.4135 363.857 82.4124 363.857 82.4112C363.857 82.4101 363.857 82.4089 363.857 82.4078C363.857 82.4066 363.857 82.4055 363.857 82.4044C363.857 82.4032 363.857 82.4021 363.857 82.4009C363.857 82.3998 363.857 82.3986 363.857 82.3975C363.857 82.3964 363.857 82.3952 363.857 82.3941C363.857 82.393 363.857 82.3918 363.857 82.3907C363.857 82.3896 363.857 82.3884 363.857 82.3873C363.857 82.3862 363.857 82.385 363.857 82.3839C363.857 82.3828 363.857 82.3816 363.857 82.3805C363.857 82.3794 363.857 82.3783 363.857 82.3771C363.857 82.376 363.857 82.3749 363.857 82.3737C363.857 82.3726 363.857 82.3715 363.857 82.3704C363.857 82.3693 363.857 82.3681 363.857 82.367C363.857 82.3659 363.857 82.3648 363.857 82.3637C363.857 82.3625 363.857 82.3614 363.857 82.3603C363.857 82.3592 363.857 82.3581 363.857 82.357C363.857 82.3559 363.857 82.3548 363.857 82.3536C363.857 82.3525 363.857 82.3514 363.857 82.3503C363.857 82.3492 363.857 82.3481 363.857 82.347C363.857 82.3459 363.857 82.3448 363.857 82.3437C363.857 82.3426 363.857 82.3415 363.857 82.3404C363.857 82.3393 363.857 82.3382 363.857 82.3371C363.857 82.336 363.857 82.3349 363.857 82.3338C363.857 82.3327 363.857 82.3316 363.857 82.3305C363.857 82.3294 363.857 82.3283 363.857 82.3272C363.857 82.3261 363.857 82.325 363.857 82.3239C363.857 82.3228 363.857 82.3218 363.857 82.3207C363.857 82.3196 363.857 82.3185 363.857 82.3174C363.857 82.3163 363.857 82.3152 363.857 82.3142C363.857 82.3131 363.857 82.312 363.857 82.3109C363.857 82.3098 363.857 82.3087 363.857 82.3077C363.857 82.3066 363.857 82.3055 363.857 82.3044C363.857 82.3033 363.857 82.3023 363.857 82.3012C363.857 82.3001 363.857 82.299 363.857 82.298C363.857 82.2969 363.857 82.2958 363.857 82.2948C363.857 82.2937 363.857 82.2926 363.857 82.2916C363.857 82.2905 363.857 82.2894 363.857 82.2884C363.857 82.2873 363.857 82.2862 363.857 82.2852C363.857 82.2841 363.857 82.283 363.857 82.282C363.857 82.2809 363.857 82.2799 363.857 82.2788C363.857 82.2777 363.857 82.2767 363.857 82.2756C363.857 82.2746 363.857 82.2735 363.857 82.2724C363.857 82.2714 363.857 82.2703 363.857 82.2693C363.857 82.2682 363.857 82.2672 363.857 82.2661C363.857 82.2651 363.857 82.264 363.857 82.263C363.857 82.2619 363.857 82.2609 363.857 82.2598C363.857 82.2588 363.857 82.2577 363.857 82.2567C363.857 82.2557 363.857 82.2546 363.857 82.2536C363.857 82.2525 363.857 82.2515 363.857 82.2505C363.857 82.2494 363.857 82.2484 363.857 82.2473C363.857 82.2463 363.857 82.2453 363.857 82.2442C363.857 82.2432 363.857 82.2422 363.857 82.2411C363.857 82.2401 363.857 82.2391 363.857 82.238C363.857 82.237 363.857 82.236 363.857 82.2349C363.857 82.2339 363.857 82.2329 363.857 82.2319C363.857 82.2308 363.857 82.2298 363.857 82.2288C363.857 82.2278 363.857 82.2267 363.857 82.2257C363.857 82.2247 363.857 82.2237 363.857 82.2227C363.857 82.2216 363.857 82.2206 363.857 82.2196C363.857 82.2186 363.857 82.2176 363.857 82.2166C363.857 82.2155 363.857 82.2145 363.857 82.2135C363.857 82.2125 363.857 82.2115 363.857 82.2105C363.857 82.2095 363.857 82.2085 363.857 82.2075C363.857 82.2064 363.857 82.2054 363.857 82.2044C363.857 82.2034 363.857 82.2024 363.857 82.2014C363.857 82.2004 363.857 82.1994 363.857 82.1984C363.857 82.1974 363.857 82.1964 363.857 82.1954C363.857 82.1944 363.857 82.1934 363.857 82.1924C363.857 82.1914 363.857 82.1904 363.857 82.1894C363.857 82.1884 363.857 82.1874 363.857 82.1864C363.857 82.1854 363.857 82.1845 363.857 82.1835C363.857 82.1825 363.857 82.1815 363.857 82.1805C363.857 82.1795 363.857 82.1785 363.857 82.1775C363.857 82.1765 363.857 82.1756 363.857 82.1746C363.857 82.1736 363.857 82.1726 363.857 82.1716C363.857 82.1706 363.857 82.1697 363.857 82.1687C363.857 82.1677 363.857 82.1667 363.857 82.1657C363.857 82.1648 363.857 82.1638 363.857 82.1628C363.857 82.1618 363.857 82.1609 363.857 82.1599C363.857 82.1589 363.857 82.158 363.857 82.157C363.857 82.156 363.857 82.155 363.857 82.1541C363.857 82.1531 363.857 82.1521 363.857 82.1512C363.857 82.1502 363.857 82.1492 363.857 82.1483C363.857 82.1473 363.857 82.1463 363.857 82.1454C363.857 82.1444 363.857 82.1435 363.857 82.1425C363.857 82.1415 363.857 82.1406 363.857 82.1396C363.857 82.1387 363.857 82.1377 363.857 82.1368C363.857 82.1358 363.857 82.1348 363.857 82.1339C363.857 82.1329 363.857 82.132 363.857 82.131C363.857 82.1301 363.857 82.1291 363.857 82.1282C363.857 82.1272 363.857 82.1263 363.857 82.1254C363.857 82.1244 363.857 82.1235 363.857 82.1225C363.857 82.1216 363.857 82.1206 363.857 82.1197C363.857 82.1187 363.857 82.1178 363.857 82.1169C363.857 82.1159 363.857 82.115 363.857 82.114C363.857 82.1131 363.857 82.1122 363.857 82.1112C363.857 82.1103 363.857 82.1094 363.857 82.1084C363.857 82.1075 363.857 82.1066 363.857 82.1056C363.857 82.1047 363.857 82.1038 363.857 82.1029C363.857 82.1019 363.857 82.101 363.857 82.1001C363.857 82.0991 363.857 82.0982 363.857 82.0973C363.857 82.0964 363.857 82.0954 363.857 82.0945C363.857 82.0936 363.857 82.0927 363.857 82.0918C363.857 82.0908 363.857 82.0899 363.857 82.089C363.857 82.0881 363.857 82.0872 363.857 82.0863C363.857 82.0853 363.857 82.0844 363.857 82.0835C363.857 82.0826 363.857 82.0817 363.857 82.0808C363.857 82.0799 363.857 82.079 363.857 82.078C363.857 82.0771 363.857 82.0762 363.857 82.0753C363.857 82.0744 363.857 82.0735 363.857 82.0726C363.857 82.0717 363.857 82.0708 363.857 82.0699C363.857 82.069 363.857 82.0681 363.857 82.0672C363.857 82.0663 363.857 82.0654 363.857 82.0645C363.857 82.0636 363.857 82.0627 363.857 82.0618C363.857 82.0609 363.857 82.06 363.857 82.0591C363.857 82.0582 363.857 82.0573 363.857 82.0564C363.857 82.0556 363.857 82.0547 363.857 82.0538C363.857 82.0529 363.857 82.052 363.857 82.0511C363.857 82.0502 363.857 82.0493 363.857 82.0485C363.857 82.0476 363.857 82.0467 363.857 82.0458C363.857 82.0449 363.857 82.044 363.857 82.0432C363.857 82.0423 363.857 82.0414 363.857 82.0405C363.857 82.0397 363.857 82.0388 363.857 82.0379C363.857 82.037 363.857 82.0362 363.857 82.0353C363.857 82.0344 363.857 82.0335 363.857 82.0327C363.857 82.0318 363.857 82.0309 363.857 82.0301C363.857 82.0292 363.857 82.0283 363.857 82.0275C363.857 82.0266 363.857 82.0257 363.857 82.0249C363.857 82.024 363.857 82.0231 363.857 82.0223C363.857 82.0214 363.857 82.0205 363.857 82.0197C363.857 82.0188 363.857 82.018 363.857 82.0171C363.857 82.0162 363.857 82.0154 363.857 82.0145C363.857 82.0137 363.857 82.0128 363.857 82.012C363.857 82.0111 363.857 82.0103 363.857 82.0094C363.857 82.0086 363.857 82.0077 363.857 82.0069C363.857 82.006 363.857 82.0052 363.857 82.0043C363.857 82.0035 363.857 82.0026 363.857 82.0018C363.857 82.0009 363.857 82.0001 363.857 81.9993C363.857 81.9984 363.857 81.9976 363.857 81.9967C363.857 81.9959 363.857 81.9951 363.857 81.9942C363.857 81.9934 363.857 81.9925 363.857 81.9917C363.857 81.9909 363.857 81.99 363.857 81.9892C363.857 81.9884 363.857 81.9875 363.857 81.9867C363.857 81.9859 363.857 81.985 363.857 81.9842C363.857 81.9834 363.857 81.9826 363.857 81.9817C363.857 81.9809 363.857 81.9801 363.857 81.9793C363.857 81.9784 363.857 81.9776 363.857 81.9768C363.857 81.976 363.857 81.9751 363.857 81.9743C363.857 81.9735 363.857 81.9727 363.857 81.9719C363.857 81.971 363.857 81.9702 363.857 81.9694C363.857 81.9686 363.857 81.9678 363.857 81.967C363.857 81.9662 363.857 81.9653 363.857 81.9645C363.857 81.9637 363.857 81.9629 363.857 81.9621C363.857 81.9613 363.857 81.9605 363.857 81.9597C363.857 81.9589 363.857 81.9581 363.857 81.9573C363.857 81.9565 363.857 81.9557 363.857 81.9548C363.857 81.954 363.857 81.9532 363.857 81.9524C363.857 81.9516 363.857 81.9508 363.857 81.9501C363.857 81.9493 363.857 81.9485 363.857 81.9477C363.857 81.9469 363.857 81.9461 363.857 81.9453C363.857 81.9445 363.857 81.9437 363.857 81.9429C363.857 81.9421 363.857 81.9413 363.857 81.9405C363.857 81.9397 363.857 81.939 363.857 81.9382C363.857 81.9374 363.857 81.9366 363.857 81.9358C363.857 81.935 363.857 81.9342 363.857 81.9335C363.857 81.9327 363.857 81.9319 363.857 81.9311C363.857 81.9303 363.857 81.9296 363.857 81.9288C363.857 81.928 363.857 81.9272 363.857 81.9264C363.857 81.9257 363.857 81.9249 363.857 81.9241C363.857 81.9233 363.857 81.9226 363.857 81.9218C363.857 81.921 363.857 81.9203 363.857 81.9195C363.857 81.9187 363.857 81.918 363.857 81.9172C363.857 81.9164 363.857 81.9157 363.857 81.9149C363.857 81.9141 363.857 81.9134 363.857 81.9126C363.857 81.9118 363.857 81.9111 363.857 81.9103C363.857 81.9096 363.857 81.9088 363.857 81.908C363.857 81.9073 363.857 81.9065 363.857 81.9058C363.857 81.905 363.857 81.9043 363.857 81.9035C363.857 81.9028 363.857 81.902 363.857 81.9012C363.857 81.9005 363.857 81.8997 363.857 81.899C363.857 81.8982 363.857 81.8975 363.857 81.8968C363.857 81.896 363.857 81.8953 363.857 81.8945C363.857 81.8938 363.857 81.893 363.857 81.8923C363.857 81.8915 363.857 81.8908 363.857 81.8901C363.857 81.8893 363.857 81.8886 363.857 81.8878C363.857 81.8871 363.857 81.8864 363.857 81.8856C363.857 81.8849 363.857 81.8842 363.857 81.8834C363.857 81.8827 363.857 81.882 363.857 81.8812C363.857 81.8805 363.857 81.8798 363.857 81.879C363.857 81.8783 363.857 81.8776 363.857 81.8769C363.857 81.8761 363.857 81.8754 363.857 81.8747C363.857 81.874 363.857 81.8732 363.857 81.8725C363.857 81.8718 363.857 81.8711 363.857 81.8703C363.857 81.8696 363.857 81.8689 363.857 81.8682C363.857 81.8675 363.857 81.8667 363.857 81.866C363.857 81.8653 363.857 81.8646 363.857 81.8639C363.857 81.8632 363.857 81.8625 363.857 81.8617C363.857 81.861 363.857 81.8603 363.857 81.8596C363.857 81.8589 363.857 81.8582 363.857 81.8575C363.857 81.8568 363.857 81.8561 363.857 81.8554C363.857 81.8547 363.857 81.854 363.857 81.8533C363.857 81.8526 363.857 81.8519 363.857 81.8512C363.857 81.8505 363.857 81.8498 363.857 81.8491C363.857 81.8484 363.857 81.8477 363.857 81.847C363.857 81.8463 363.857 81.8456 363.857 81.8449C363.857 81.8442 363.857 81.8435 363.857 81.8428C363.857 81.8421 363.857 81.8414 363.857 81.8407C363.857 81.84 363.857 81.8394 363.857 81.8387C363.857 81.838 363.857 81.8373 363.857 81.8366C363.857 81.8359 363.857 81.8352 363.857 81.8346C363.857 81.8339 363.857 81.8332 363.857 81.8325C363.857 81.8318 363.857 81.8312 363.857 81.8305C363.857 81.8298 363.857 81.8291 363.857 81.8284C363.857 81.8278 363.857 81.8271 363.857 81.8264C363.857 81.8257 363.857 81.8251 363.857 81.8244C363.857 81.8237 363.857 81.8231 363.857 81.8224C363.857 81.8217 363.857 81.8211 363.857 81.8204C363.857 81.8197 363.857 81.8191 363.857 81.8184C363.857 81.8177 363.857 81.8171 363.857 81.8164C363.857 81.8157 363.857 81.8151 363.857 81.8144C363.857 81.8138 363.857 81.8131 363.857 81.8124C363.857 81.8118 363.857 81.8111 363.857 81.8105C363.857 81.8098 363.857 81.8092 363.857 81.8085C363.857 81.8078 363.857 81.8072 363.857 81.8065C363.857 81.8059 363.857 81.8052 363.857 81.8046C363.857 81.8039 363.857 81.8033 363.857 81.8026C363.857 81.802 363.857 81.8013 363.857 81.8007C363.857 81.8001 363.857 81.7994 363.857 81.7988C363.857 81.7981 363.857 81.7975 363.857 81.7968C363.857 81.7962 363.857 81.7956 363.857 81.7949C363.857 81.7943 363.857 81.7937 363.857 81.793C363.857 81.7924 363.857 81.7917 363.857 81.7911H362.357ZM362.357 83.6361H360.857C360.857 84.5668 360.902 85.3919 361 86.0975L362.485 85.8911L363.971 85.6848C363.898 85.1603 363.857 84.4821 363.857 83.6361H362.357ZM362.485 85.8911V84.3911H355.003V85.8911V87.3911H362.485V85.8911ZM374.591 84.9432L373.92 86.2848L373.933 86.2915L373.946 86.2979L374.591 84.9432ZM369.238 79.869L367.946 80.6314V80.6314L369.238 79.869ZM369.238 62.2489L370.512 63.0399L370.518 63.0302L369.238 62.2489ZM374.591 57.342L375.243 58.6925L375.253 58.688L374.591 57.342ZM389.423 57.342L388.752 58.6836L388.761 58.6881L388.77 58.6925L389.423 57.342ZM394.776 62.2489L393.495 63.0302L393.501 63.0399L394.776 62.2489ZM394.776 79.7575L396.067 80.5199V80.5199L394.776 79.7575ZM389.423 84.8874L390.093 86.2291L390.102 86.2246L390.111 86.2201L389.423 84.8874ZM385.743 79.3672L386.501 80.6612L386.508 80.6574L386.514 80.6534L385.743 79.3672ZM388.363 76.3562L389.72 76.9967V76.9967L388.363 76.3562ZM388.363 65.706L389.697 65.0191V65.0191L388.363 65.706ZM385.743 62.918L384.951 64.1925L384.977 64.2083L385.003 64.223L385.743 62.918ZM378.215 62.918L378.973 64.212L378.98 64.2082L378.987 64.2042L378.215 62.918ZM375.65 65.706L374.316 65.0191V65.0191L375.65 65.706ZM375.65 76.4119L374.294 77.0524L374.297 77.0599L374.301 77.0673L375.65 76.4119ZM378.215 79.3672L377.424 80.6417L377.449 80.6575L377.475 80.6722L378.215 79.3672ZM382.007 86.5602V85.0602C379.538 85.0602 377.288 84.5646 375.235 83.5885L374.591 84.9432L373.946 86.2979C376.428 87.4778 379.122 88.0602 382.007 88.0602V86.5602ZM374.591 84.9432L375.261 83.6016C373.304 82.623 371.729 81.14 370.529 79.1067L369.238 79.869L367.946 80.6314C369.422 83.1333 371.416 85.033 373.92 86.2848L374.591 84.9432ZM369.238 79.869L370.529 79.1067C369.361 77.127 368.73 74.583 368.73 71.3935H367.23H365.73C365.73 74.9695 366.438 78.0759 367.946 80.6314L369.238 79.869ZM367.23 71.3935H368.73V70.2783H367.23H365.73V71.3935H367.23ZM367.23 70.2783H368.73C368.73 67.2889 369.355 64.9039 370.512 63.0399L369.238 62.2489L367.963 61.4578C366.444 63.906 365.73 66.8739 365.73 70.2783H367.23ZM369.238 62.2489L370.518 63.0302C371.712 61.0734 373.282 59.6402 375.243 58.6925L374.591 57.342L373.938 55.9915C371.438 57.1998 369.44 59.0379 367.957 61.4676L369.238 62.2489ZM374.591 57.342L375.253 58.688C377.302 57.6801 379.546 57.1692 382.007 57.1692V55.6692V54.1692C379.115 54.1692 376.414 54.7735 373.929 55.996L374.591 57.342ZM382.007 55.6692V57.1692C384.508 57.1692 386.748 57.6815 388.752 58.6836L389.423 57.342L390.093 56.0004C387.637 54.772 384.932 54.1692 382.007 54.1692V55.6692ZM389.423 57.342L388.77 58.6925C390.731 59.6402 392.301 61.0734 393.495 63.0302L394.776 62.2489L396.056 61.4676C394.574 59.0379 392.575 57.1998 390.075 55.9915L389.423 57.342ZM394.776 62.2489L393.501 63.0399C394.658 64.9039 395.283 67.2889 395.283 70.2783H396.783H398.283C398.283 66.8739 397.57 63.906 396.05 61.4578L394.776 62.2489ZM396.783 70.2783H395.283V71.3935H396.783H398.283V70.2783H396.783ZM396.783 71.3935H395.283C395.283 74.5018 394.655 77.0108 393.484 78.9951L394.776 79.7575L396.067 80.5199C397.573 77.9691 398.283 74.9021 398.283 71.3935H396.783ZM394.776 79.7575L393.484 78.9951C392.282 81.0321 390.701 82.5384 388.734 83.5548L389.423 84.8874L390.111 86.2201C392.605 84.9317 394.593 83.0181 396.067 80.5199L394.776 79.7575ZM389.423 84.8874L388.752 83.5458C386.748 84.5479 384.508 85.0602 382.007 85.0602V86.5602V88.0602C384.932 88.0602 387.637 87.4574 390.093 86.2291L389.423 84.8874ZM382.007 80.3151V81.8151C383.65 81.8151 385.164 81.4449 386.501 80.6612L385.743 79.3672L384.984 78.0731C384.165 78.5533 383.188 78.8151 382.007 78.8151V80.3151ZM385.743 79.3672L386.514 80.6534C387.918 79.8113 388.979 78.565 389.72 76.9967L388.363 76.3562L387.007 75.7156C386.484 76.8237 385.798 77.5849 384.971 78.081L385.743 79.3672ZM388.363 76.3562L389.72 76.9967C390.472 75.4033 390.811 73.5153 390.811 71.3935H389.311H387.811C387.811 73.2121 387.518 74.6325 387.007 75.7156L388.363 76.3562ZM389.311 71.3935H390.811V70.2783H389.311H387.811V71.3935H389.311ZM389.311 70.2783H390.811C390.811 68.2914 390.467 66.5151 389.697 65.0191L388.363 65.706L387.03 66.3929C387.523 67.3503 387.811 68.6223 387.811 70.2783H389.311ZM388.363 65.706L389.697 65.0191C388.942 63.5537 387.871 62.3999 386.482 61.613L385.743 62.918L385.003 64.223C385.845 64.7 386.521 65.4049 387.03 66.3929L388.363 65.706ZM385.743 62.918L386.534 61.6435C385.192 60.8107 383.666 60.4143 382.007 60.4143V61.9143V63.4143C383.172 63.4143 384.137 63.6871 384.951 64.1925L385.743 62.918ZM382.007 61.9143V60.4143C380.346 60.4143 378.811 60.8108 377.443 61.6318L378.215 62.918L378.987 64.2042C379.849 63.6869 380.842 63.4143 382.007 63.4143V61.9143ZM378.215 62.918L377.456 61.6239C376.108 62.4145 375.065 63.5669 374.316 65.0191L375.65 65.706L376.983 66.3929C377.499 65.3917 378.166 64.6854 378.973 64.212L378.215 62.918ZM375.65 65.706L374.316 65.0191C373.546 66.5151 373.202 68.2914 373.202 70.2783H374.702H376.202C376.202 68.6223 376.49 67.3503 376.983 66.3929L375.65 65.706ZM374.702 70.2783H373.202V71.3935H374.702H376.202V70.2783H374.702ZM374.702 71.3935H373.202C373.202 73.5476 373.54 75.4558 374.294 77.0524L375.65 76.4119L377.006 75.7714C376.496 74.6915 376.202 73.2541 376.202 71.3935H374.702ZM375.65 76.4119L374.301 77.0673C375.039 78.5867 376.073 79.803 377.424 80.6417L378.215 79.3672L379.006 78.0927C378.201 77.5932 377.525 76.8392 376.999 75.7566L375.65 76.4119ZM378.215 79.3672L377.475 80.6722C378.839 81.4447 380.362 81.8151 382.007 81.8151V80.3151V78.8151C380.826 78.8151 379.822 78.5536 378.954 78.0622L378.215 79.3672ZM402.114 85.8911H400.614V87.3911H402.114V85.8911ZM402.114 56.3383V54.8383H400.614V56.3383H402.114ZM408.805 56.3383H410.305V54.8383H408.805V56.3383ZM408.805 60.7434H407.305L410.159 61.3905L408.805 60.7434ZM410.478 58.3457L411.566 59.3788V59.3788L410.478 58.3457ZM413.099 56.4498L413.77 57.7915V57.7915L413.099 56.4498ZM418.34 55.7807L418.112 57.2633L418.12 57.2645L418.128 57.2656L418.34 55.7807ZM419.344 56.0038H420.844V55.0767L420.015 54.6621L419.344 56.0038ZM419.344 62.5277L418.787 63.9204L420.844 64.7432V62.5277H419.344ZM417.894 62.1374L417.508 63.5867L417.562 63.6013L417.618 63.6117L417.894 62.1374ZM411.984 62.8622L411.14 61.6218L411.128 61.6299L411.117 61.6382L411.984 62.8622ZM410.032 65.3714L411.421 65.9374L411.425 65.9287L411.428 65.9199L410.032 65.3714ZM409.419 85.8911V87.3911H410.919V85.8911H409.419ZM402.114 85.8911H403.614V56.3383H402.114H400.614V85.8911H402.114ZM402.114 56.3383V57.8383H408.805V56.3383V54.8383H402.114V56.3383ZM408.805 56.3383H407.305V60.7434H408.805H410.305V56.3383H408.805ZM408.805 60.7434L410.159 61.3905C410.494 60.6885 410.959 60.0177 411.566 59.3788L410.478 58.3457L409.391 57.3125C408.585 58.1606 407.934 59.0883 407.452 60.0962L408.805 60.7434ZM410.478 58.3457L411.566 59.3788C412.137 58.7774 412.864 58.2444 413.77 57.7915L413.099 56.4498L412.428 55.1082C411.252 55.6961 410.232 56.427 409.391 57.3125L410.478 58.3457ZM413.099 56.4498L413.77 57.7915C414.585 57.384 415.505 57.1692 416.556 57.1692V55.6692V54.1692C415.08 54.1692 413.695 54.4749 412.428 55.1082L413.099 56.4498ZM416.556 55.6692V57.1692C417.216 57.1692 417.73 57.2044 418.112 57.2633L418.34 55.7807L418.568 54.2982C417.985 54.2083 417.308 54.1692 416.556 54.1692V55.6692ZM418.34 55.7807L418.128 57.2656C418.368 57.2999 418.541 57.3308 418.656 57.3565C418.714 57.3693 418.745 57.3781 418.757 57.3817C418.774 57.3871 418.737 57.3775 418.673 57.3454L419.344 56.0038L420.015 54.6621C419.767 54.5383 419.496 54.4699 419.307 54.428C419.088 54.3793 418.833 54.3359 418.552 54.2958L418.34 55.7807ZM419.344 56.0038H417.844V62.5277H419.344H420.844V56.0038H419.344ZM419.344 62.5277L419.901 61.135C419.405 60.9366 418.818 60.7844 418.171 60.663L417.894 62.1374L417.618 63.6117C418.16 63.7133 418.539 63.8213 418.787 63.9204L419.344 62.5277ZM417.894 62.1374L418.281 60.688C417.541 60.4907 416.63 60.4143 415.608 60.4143V61.9143V63.4143C416.519 63.4143 417.133 63.4866 417.508 63.5867L417.894 62.1374ZM415.608 61.9143V60.4143C413.916 60.4143 412.387 60.7739 411.14 61.6218L411.984 62.8622L412.827 64.1026C413.439 63.6867 414.326 63.4143 415.608 63.4143V61.9143ZM411.984 62.8622L411.117 61.6382C409.98 62.443 409.149 63.5168 408.636 64.823L410.032 65.3714L411.428 65.9199C411.733 65.1444 412.203 64.5453 412.851 64.0863L411.984 62.8622ZM410.032 65.3714L408.643 64.8055C408.154 66.0057 407.919 67.2967 407.919 68.6613H409.419H410.919C410.919 67.6468 411.092 66.7446 411.421 65.9374L410.032 65.3714ZM409.419 68.6613H407.919V85.8911H409.419H410.919V68.6613H409.419ZM409.419 85.8911V84.3911H402.114V85.8911V87.3911H409.419V85.8911ZM428.594 96.5413L429.174 95.1583L429.163 95.1533L429.151 95.1486L428.594 96.5413ZM424.467 93.4187L423.203 94.2263L423.211 94.2386L423.219 94.2508L424.467 93.4187ZM422.962 88.6791V87.1791H421.334L421.467 88.8012L422.962 88.6791ZM430.434 88.6791L431.876 88.267L431.565 87.1791H430.434V88.6791ZM431.939 90.8538L432.946 89.7414L432.931 89.728L432.915 89.7149L431.939 90.8538ZM441.641 90.1289L442.686 91.2057V91.2057L441.641 90.1289ZM443.482 81.2073H444.982V76.0878L442.219 80.3978L443.482 81.2073ZM439.746 84.7202L440.466 86.0358L440.478 86.0293L440.49 86.0225L439.746 84.7202ZM427.701 84.3298L426.93 85.6161L426.941 85.6227L427.701 84.3298ZM423.352 79.3672L421.984 79.9827L421.991 79.9966L421.997 80.0103L423.352 79.3672ZM423.352 62.1931L422.006 61.5318L422.001 61.5413L421.997 61.551L423.352 62.1931ZM427.757 57.342L428.518 58.6349V58.6349L427.757 57.342ZM443.983 60.6876L442.672 61.4161L445.483 66.4763V60.6876H443.983ZM443.983 56.3383V54.8383H442.483V56.3383H443.983ZM450.786 56.3383H452.286V54.8383H450.786V56.3383ZM447.162 94.2551L446.126 93.1697V93.1697L447.162 94.2551ZM439.969 78.9769L440.621 80.3277L440.63 80.3232L440.639 80.3185L439.969 78.9769ZM442.534 76.4119L441.218 75.6907L441.209 75.7072L441.201 75.7239L442.534 76.4119ZM439.857 62.7507L439.186 64.0924L439.213 64.1056L439.24 64.1178L439.857 62.7507ZM431.214 63.9774L432.305 65.0074L432.312 64.9999L432.319 64.9924L431.214 63.9774ZM431.27 77.5829L430.154 78.5847V78.5847L431.27 77.5829ZM436.065 97.7122V96.2122C433.044 96.2122 430.776 95.8311 429.174 95.1583L428.594 96.5413L428.013 97.9242C430.128 98.8127 432.841 99.2122 436.065 99.2122V97.7122ZM428.594 96.5413L429.151 95.1486C427.504 94.49 426.402 93.6167 425.715 92.5867L424.467 93.4187L423.219 94.2508C424.317 95.8972 425.966 97.1056 428.037 97.934L428.594 96.5413ZM424.467 93.4187L425.731 92.6111C425.027 91.5083 424.589 90.1717 424.457 88.5571L422.962 88.6791L421.467 88.8012C421.632 90.8296 422.198 92.6526 423.203 94.2263L424.467 93.4187ZM422.962 88.6791V90.1791H430.434V88.6791V87.1791H422.962V88.6791ZM430.434 88.6791L428.991 89.0912C429.314 90.2213 430.018 91.183 430.963 91.9926L431.939 90.8538L432.915 89.7149C432.299 89.1863 431.999 88.6982 431.876 88.267L430.434 88.6791ZM431.939 90.8538L430.933 91.9661C432.146 93.0636 434.01 93.4132 436.065 93.4132V91.9132V90.4132C434.181 90.4132 433.294 90.0565 432.946 89.7414L431.939 90.8538ZM436.065 91.9132V93.4132C438.768 93.4132 441.073 92.7692 442.686 91.2057L441.641 90.1289L440.597 89.052C439.756 89.8677 438.344 90.4132 436.065 90.4132V91.9132ZM441.641 90.1289L442.686 91.2057C444.303 89.6376 444.982 87.3981 444.982 84.7759H443.482H441.982C441.982 86.9119 441.434 88.2411 440.597 89.052L441.641 90.1289ZM443.482 84.7759H444.982V81.2073H443.482H441.982V84.7759H443.482ZM443.482 81.2073L442.219 80.3978C441.426 81.6347 440.362 82.6402 439.001 83.4178L439.746 84.7202L440.49 86.0225C442.252 85.0158 443.679 83.6794 444.744 82.0168L443.482 81.2073ZM439.746 84.7202L439.025 83.4045C437.712 84.1238 436.181 84.5026 434.393 84.5026V86.0026V87.5026C436.619 87.5026 438.657 87.0265 440.466 86.0358L439.746 84.7202ZM434.393 86.0026V84.5026C432.05 84.5026 430.091 83.9954 428.462 83.0369L427.701 84.3298L426.941 85.6227C429.103 86.8946 431.605 87.5026 434.393 87.5026V86.0026ZM427.701 84.3298L428.473 83.0436C426.898 82.0984 425.637 80.6833 424.707 78.7241L423.352 79.3672L421.997 80.0103C423.149 82.4375 424.788 84.3308 426.93 85.6161L427.701 84.3298ZM423.352 79.3672L424.72 78.7516C423.828 76.7684 423.347 74.2417 423.347 71.1147H421.847H420.347C420.347 74.5303 420.869 77.5052 421.984 79.9827L423.352 79.3672ZM421.847 71.1147H423.347V69.9995H421.847H420.347V71.1147H421.847ZM421.847 69.9995H423.347C423.347 67.0691 423.824 64.7005 424.708 62.8352L423.352 62.1931L421.997 61.551C420.873 63.9235 420.347 66.7592 420.347 69.9995H421.847ZM423.352 62.1931L424.699 62.8545C425.62 60.9786 426.893 59.5904 428.518 58.6349L427.757 57.342L426.997 56.0491C424.829 57.324 423.166 59.1698 422.006 61.5318L423.352 62.1931ZM427.757 57.342L428.518 58.6349C430.15 57.6745 432.092 57.1692 434.393 57.1692V55.6692V54.1692C431.638 54.1692 429.156 54.7791 426.997 56.0491L427.757 57.342ZM434.393 55.6692V57.1692C436.647 57.1692 438.375 57.6302 439.673 58.445L440.471 57.1747L441.268 55.9044C439.369 54.7118 437.045 54.1692 434.393 54.1692V55.6692ZM440.471 57.1747L439.673 58.445C441.107 59.3452 442.077 60.3447 442.672 61.4161L443.983 60.6876L445.295 59.9591C444.403 58.354 443.031 57.0116 441.268 55.9044L440.471 57.1747ZM443.983 60.6876H445.483V56.3383H443.983H442.483V60.6876H443.983ZM443.983 56.3383V57.8383H450.786V56.3383V54.8383H443.983V56.3383ZM450.786 56.3383H449.286V84.2183H450.786H452.286V56.3383H450.786ZM450.786 84.2183H449.286C449.286 88.3292 448.161 91.2291 446.126 93.1697L447.162 94.2551L448.197 95.3405C450.995 92.6716 452.286 88.8803 452.286 84.2183H450.786ZM447.162 94.2551L446.126 93.1697C444.1 95.1027 440.848 96.2122 436.065 96.2122V97.7122V99.2122C441.246 99.2122 445.391 98.017 448.197 95.3405L447.162 94.2551ZM436.121 79.7575V81.2575C437.781 81.2575 439.296 80.9671 440.621 80.3277L439.969 78.9769L439.317 77.626C438.485 78.0275 437.436 78.2575 436.121 78.2575V79.7575ZM439.969 78.9769L440.639 80.3185C442.051 79.6127 443.132 78.5227 443.867 77.0999L442.534 76.4119L441.201 75.7239C440.746 76.6059 440.117 77.2258 439.298 77.6352L439.969 78.9769ZM442.534 76.4119L443.849 77.1332C444.628 75.712 444.982 74.0569 444.982 72.2299H443.482H441.982C441.982 73.6741 441.703 74.8071 441.218 75.6907L442.534 76.4119ZM443.482 72.2299H444.982V68.8843H443.482H441.982V72.2299H443.482ZM443.482 68.8843H444.982C444.982 67.1278 444.626 65.5453 443.803 64.2377L442.534 65.0369L441.264 65.8361C441.705 66.5358 441.982 67.5183 441.982 68.8843H443.482ZM442.534 65.0369L443.803 64.2377C443.004 62.9681 441.877 62.0169 440.475 61.3837L439.857 62.7507L439.24 64.1178C440.142 64.5254 440.8 65.0983 441.264 65.8361L442.534 65.0369ZM439.857 62.7507L440.528 61.4091C439.184 60.737 437.705 60.4143 436.121 60.4143V61.9143V63.4143C437.288 63.4143 438.3 63.6493 439.186 64.0924L439.857 62.7507ZM436.121 61.9143V60.4143C433.729 60.4143 431.681 61.253 430.11 62.9625L431.214 63.9774L432.319 64.9924C433.276 63.951 434.499 63.4143 436.121 63.4143V61.9143ZM431.214 63.9774L430.124 62.9475C428.499 64.6684 427.819 67.1125 427.819 69.9995H429.319H430.819C430.819 67.5336 431.402 65.963 432.305 65.0074L431.214 63.9774ZM429.319 69.9995H427.819V71.1147H429.319H430.819V69.9995H429.319ZM429.319 71.1147H427.819C427.819 74.1767 428.512 76.755 430.154 78.5847L431.27 77.5829L432.386 76.581C431.426 75.5112 430.819 73.7775 430.819 71.1147H429.319ZM431.27 77.5829L430.154 78.5847C431.737 80.3487 433.758 81.2575 436.121 81.2575V79.7575V78.2575C434.618 78.2575 433.406 77.7166 432.386 76.581L431.27 77.5829Z" fill="white" mask="url(#path-29-outside-1_586_212)"/>
</svg>
