<svg width="267" height="77" viewBox="0 0 267 77" fill="none" xmlns="http://www.w3.org/2000/svg">
<path d="M46.609 19V4.45455H48.3704V17.4375H55.1317V19H46.609ZM62.0636 19.2273C61.0787 19.2273 60.2146 18.9929 59.4712 18.5241C58.7326 18.0554 58.1549 17.3996 57.7383 16.5568C57.3263 15.714 57.1204 14.7292 57.1204 13.6023C57.1204 12.4659 57.3263 11.474 57.7383 10.6264C58.1549 9.77888 58.7326 9.12074 59.4712 8.65199C60.2146 8.18324 61.0787 7.94886 62.0636 7.94886C63.0484 7.94886 63.9102 8.18324 64.6488 8.65199C65.3922 9.12074 65.9698 9.77888 66.3817 10.6264C66.7984 11.474 67.0067 12.4659 67.0067 13.6023C67.0067 14.7292 66.7984 15.714 66.3817 16.5568C65.9698 17.3996 65.3922 18.0554 64.6488 18.5241C63.9102 18.9929 63.0484 19.2273 62.0636 19.2273ZM62.0636 17.7216C62.8117 17.7216 63.4272 17.5298 63.9102 17.1463C64.3931 16.7628 64.7506 16.2585 64.9826 15.6335C65.2146 15.0085 65.3306 14.3314 65.3306 13.6023C65.3306 12.8731 65.2146 12.1937 64.9826 11.5639C64.7506 10.9342 64.3931 10.4252 63.9102 10.0369C63.4272 9.64867 62.8117 9.45455 62.0636 9.45455C61.3155 9.45455 60.6999 9.64867 60.217 10.0369C59.734 10.4252 59.3765 10.9342 59.1445 11.5639C58.9125 12.1937 58.7965 12.8731 58.7965 13.6023C58.7965 14.3314 58.9125 15.0085 59.1445 15.6335C59.3765 16.2585 59.734 16.7628 60.217 17.1463C60.6999 17.5298 61.3155 17.7216 62.0636 17.7216ZM73.9688 23.3182C73.1591 23.3182 72.4631 23.214 71.8807 23.0057C71.2983 22.8021 70.813 22.5322 70.4247 22.196C70.0412 21.8646 69.7358 21.5095 69.5085 21.1307L70.8438 20.1932C70.9953 20.392 71.187 20.6193 71.419 20.875C71.651 21.1354 71.9683 21.3603 72.3707 21.5497C72.7779 21.7438 73.3106 21.8409 73.9688 21.8409C74.8494 21.8409 75.5762 21.6278 76.1491 21.2017C76.7221 20.7756 77.0085 20.108 77.0085 19.1989V16.983H76.8665C76.7434 17.1818 76.5682 17.428 76.3409 17.7216C76.1184 18.0104 75.7964 18.2685 75.375 18.4957C74.9583 18.7183 74.3949 18.8295 73.6847 18.8295C72.804 18.8295 72.0133 18.6212 71.3125 18.2045C70.6165 17.7879 70.0649 17.1818 69.6577 16.3864C69.2552 15.5909 69.054 14.625 69.054 13.4886C69.054 12.3712 69.2505 11.3982 69.6435 10.5696C70.0365 9.73627 70.5833 9.09233 71.2841 8.63778C71.9848 8.1785 72.7945 7.94886 73.7131 7.94886C74.4233 7.94886 74.9867 8.06723 75.4034 8.30398C75.8248 8.53598 76.1468 8.80114 76.3693 9.09943C76.5966 9.39299 76.7718 9.63447 76.8949 9.82386H77.0653V8.09091H78.6847V19.3125C78.6847 20.25 78.4716 21.0123 78.0455 21.5994C77.6241 22.1913 77.0559 22.6245 76.3409 22.8991C75.6307 23.1785 74.84 23.3182 73.9688 23.3182ZM73.9119 17.3239C74.5843 17.3239 75.1525 17.17 75.6165 16.8622C76.0805 16.5545 76.4332 16.1117 76.6747 15.5341C76.9162 14.9564 77.0369 14.2652 77.0369 13.4602C77.0369 12.6742 76.9186 11.9806 76.6818 11.3793C76.4451 10.7779 76.0947 10.3068 75.6307 9.96591C75.1667 9.625 74.5938 9.45455 73.9119 9.45455C73.2017 9.45455 72.6098 9.63447 72.1364 9.99432C71.6676 10.3542 71.3149 10.8371 71.0781 11.4432C70.8461 12.0492 70.7301 12.7216 70.7301 13.4602C70.7301 14.2178 70.8485 14.8878 71.0852 15.4702C71.3267 16.0478 71.6818 16.5024 72.1506 16.8338C72.6241 17.1605 73.2112 17.3239 73.9119 17.3239ZM86.1847 19.2273C85.1998 19.2273 84.3357 18.9929 83.5923 18.5241C82.8537 18.0554 82.276 17.3996 81.8594 16.5568C81.4474 15.714 81.2415 14.7292 81.2415 13.6023C81.2415 12.4659 81.4474 11.474 81.8594 10.6264C82.276 9.77888 82.8537 9.12074 83.5923 8.65199C84.3357 8.18324 85.1998 7.94886 86.1847 7.94886C87.1695 7.94886 88.0313 8.18324 88.7699 8.65199C89.5133 9.12074 90.0909 9.77888 90.5028 10.6264C90.9195 11.474 91.1278 12.4659 91.1278 13.6023C91.1278 14.7292 90.9195 15.714 90.5028 16.5568C90.0909 17.3996 89.5133 18.0554 88.7699 18.5241C88.0313 18.9929 87.1695 19.2273 86.1847 19.2273ZM86.1847 17.7216C86.9328 17.7216 87.5483 17.5298 88.0312 17.1463C88.5142 16.7628 88.8717 16.2585 89.1037 15.6335C89.3357 15.0085 89.4517 14.3314 89.4517 13.6023C89.4517 12.8731 89.3357 12.1937 89.1037 11.5639C88.8717 10.9342 88.5142 10.4252 88.0312 10.0369C87.5483 9.64867 86.9328 9.45455 86.1847 9.45455C85.4366 9.45455 84.821 9.64867 84.3381 10.0369C83.8551 10.4252 83.4976 10.9342 83.2656 11.5639C83.0336 12.1937 82.9176 12.8731 82.9176 13.6023C82.9176 14.3314 83.0336 15.0085 83.2656 15.6335C83.4976 16.2585 83.8551 16.7628 84.3381 17.1463C84.821 17.5298 85.4366 17.7216 86.1847 17.7216ZM14.4996 43V28.4545H19.4144C20.5555 28.4545 21.4883 28.6605 22.2127 29.0724C22.9419 29.4796 23.4817 30.0312 23.832 30.7273C24.1824 31.4233 24.3576 32.1998 24.3576 33.0568C24.3576 33.9138 24.1824 34.6927 23.832 35.3935C23.4864 36.0942 22.9514 36.6529 22.2269 37.0696C21.5025 37.4815 20.5745 37.6875 19.4428 37.6875H15.9201V36.125H19.386C20.1673 36.125 20.7946 35.9901 21.2681 35.7202C21.7416 35.4503 22.0849 35.0857 22.2979 34.6264C22.5157 34.1624 22.6246 33.6392 22.6246 33.0568C22.6246 32.4744 22.5157 31.9536 22.2979 31.4943C22.0849 31.035 21.7392 30.6752 21.261 30.4148C20.7828 30.1496 20.1483 30.017 19.3576 30.017H16.261V43H14.4996ZM28.6438 28.4545V43H26.9677V28.4545H28.6438ZM34.924 43.2557C34.2327 43.2557 33.6054 43.1255 33.0419 42.8651C32.4785 42.5999 32.031 42.2188 31.6996 41.7216C31.3681 41.2197 31.2024 40.6136 31.2024 39.9034C31.2024 39.2784 31.3255 38.7718 31.5717 38.3835C31.8179 37.9905 32.147 37.6828 32.5589 37.4602C32.9709 37.2377 33.4254 37.072 33.9226 36.9631C34.4245 36.8494 34.9287 36.7595 35.4354 36.6932C36.0982 36.608 36.6357 36.544 37.0476 36.5014C37.4643 36.4541 37.7673 36.3759 37.9567 36.267C38.1508 36.1581 38.2479 35.9687 38.2479 35.6989V35.642C38.2479 34.9413 38.0561 34.3968 37.6726 34.0085C37.2938 33.6203 36.7185 33.4261 35.9467 33.4261C35.1465 33.4261 34.5192 33.6013 34.0646 33.9517C33.6101 34.3021 33.2905 34.6761 33.1058 35.0739L31.5149 34.5057C31.799 33.8428 32.1778 33.3267 32.6513 32.9574C33.1295 32.5833 33.6503 32.3229 34.2138 32.1761C34.782 32.0246 35.3407 31.9489 35.8899 31.9489C36.2403 31.9489 36.6428 31.9915 37.0973 32.0767C37.5566 32.1572 37.9993 32.3253 38.4254 32.581C38.8563 32.8366 39.2138 33.2225 39.4979 33.7386C39.782 34.2547 39.924 34.946 39.924 35.8125V43H38.2479V41.5227H38.1626C38.049 41.7595 37.8596 42.0128 37.5945 42.2827C37.3293 42.5526 36.9766 42.7822 36.5362 42.9716C36.0959 43.161 35.5585 43.2557 34.924 43.2557ZM35.1797 41.75C35.8426 41.75 36.4013 41.6198 36.8558 41.3594C37.3151 41.099 37.6607 40.7628 37.8928 40.3509C38.1295 39.9389 38.2479 39.5057 38.2479 39.0511V37.517C38.1768 37.6023 38.0206 37.6804 37.7791 37.7514C37.5424 37.8177 37.2678 37.8769 36.9553 37.929C36.6475 37.9763 36.3468 38.0189 36.0533 38.0568C35.7644 38.09 35.5301 38.1184 35.3501 38.142C34.9145 38.1989 34.5073 38.2912 34.1286 38.419C33.7545 38.5421 33.4515 38.7292 33.2195 38.9801C32.9922 39.2263 32.8786 39.5625 32.8786 39.9886C32.8786 40.571 33.094 41.0114 33.5249 41.3097C33.9605 41.6032 34.5121 41.75 35.1797 41.75ZM47.4151 43.2273C46.3924 43.2273 45.5117 42.9858 44.7731 42.5028C44.0344 42.0199 43.4663 41.3546 43.0685 40.5071C42.6708 39.6596 42.4719 38.6913 42.4719 37.6023C42.4719 36.4943 42.6755 35.5166 43.0827 34.669C43.4947 33.8168 44.0676 33.1515 44.8015 32.6733C45.5401 32.1903 46.4019 31.9489 47.3867 31.9489C48.1538 31.9489 48.8451 32.0909 49.4606 32.375C50.0761 32.6591 50.5804 33.0568 50.9734 33.5682C51.3664 34.0795 51.6102 34.6761 51.7049 35.358H50.0288C49.9009 34.8608 49.6168 34.4205 49.1765 34.0369C48.7409 33.6487 48.1538 33.4545 47.4151 33.4545C46.7617 33.4545 46.1888 33.625 45.6964 33.9659C45.2087 34.3021 44.8275 34.7779 44.5529 35.3935C44.283 36.0043 44.1481 36.7216 44.1481 37.5455C44.1481 38.3883 44.2807 39.1222 44.5458 39.7472C44.8157 40.3722 45.1945 40.8575 45.6822 41.2031C46.1746 41.5488 46.7522 41.7216 47.4151 41.7216C47.8507 41.7216 48.2461 41.6458 48.6012 41.4943C48.9563 41.3428 49.257 41.125 49.5032 40.8409C49.7494 40.5568 49.9246 40.2159 50.0288 39.8182H51.7049C51.6102 40.4621 51.3758 41.0421 51.0018 41.5582C50.6325 42.0696 50.1424 42.4768 49.5316 42.7798C48.9255 43.0781 48.2201 43.2273 47.4151 43.2273ZM58.729 43.2273C57.6779 43.2273 56.7712 42.9953 56.0089 42.5312C55.2513 42.0625 54.6665 41.4091 54.2546 40.571C53.8474 39.7282 53.6438 38.7481 53.6438 37.6307C53.6438 36.5133 53.8474 35.5284 54.2546 34.6761C54.6665 33.8191 55.2395 33.1515 55.9734 32.6733C56.712 32.1903 57.5737 31.9489 58.5586 31.9489C59.1268 31.9489 59.6879 32.0436 60.2418 32.233C60.7958 32.4223 61.3001 32.7301 61.7546 33.1562C62.2092 33.5777 62.5714 34.1364 62.8413 34.8324C63.1112 35.5284 63.2461 36.3854 63.2461 37.4034V38.1136H54.837V36.6648H61.5415C61.5415 36.0492 61.4184 35.5 61.1722 35.017C60.9308 34.5341 60.5851 34.1529 60.1353 33.8736C59.6902 33.5942 59.1647 33.4545 58.5586 33.4545C57.891 33.4545 57.3133 33.6203 56.8256 33.9517C56.3427 34.2784 55.971 34.7045 55.7106 35.2301C55.4502 35.7557 55.32 36.3191 55.32 36.9205V37.8864C55.32 38.7102 55.462 39.4086 55.7461 39.9815C56.0349 40.5497 56.435 40.983 56.9464 41.2812C57.4577 41.5748 58.052 41.7216 58.729 41.7216C59.1694 41.7216 59.5671 41.66 59.9222 41.5369C60.2821 41.4091 60.5922 41.2197 60.8526 40.9688C61.113 40.7131 61.3143 40.3958 61.4563 40.017L63.0756 40.4716C62.9052 41.0208 62.6187 41.5038 62.2163 41.9205C61.8138 42.3324 61.3166 42.6544 60.7248 42.8864C60.1329 43.1136 59.4677 43.2273 58.729 43.2273ZM67.4719 36.4375V43H65.7958V28.4545H67.4719V33.7955H67.614C67.8697 33.232 68.2532 32.7846 68.7646 32.4531C69.2807 32.117 69.9672 31.9489 70.8242 31.9489C71.5676 31.9489 72.2186 32.098 72.7773 32.3963C73.3361 32.6899 73.7693 33.142 74.0771 33.7528C74.3896 34.3589 74.5458 35.1307 74.5458 36.0682V43H72.8697V36.1818C72.8697 35.3153 72.6448 34.6454 72.195 34.1719C71.7499 33.6937 71.132 33.4545 70.3413 33.4545C69.792 33.4545 69.2996 33.5705 68.864 33.8026C68.4331 34.0346 68.0922 34.3731 67.8413 34.8182C67.5951 35.2633 67.4719 35.803 67.4719 36.4375ZM82.044 43.2273C81.0592 43.2273 80.1951 42.9929 79.4517 42.5241C78.7131 42.0554 78.1354 41.3996 77.7188 40.5568C77.3068 39.714 77.1009 38.7292 77.1009 37.6023C77.1009 36.4659 77.3068 35.474 77.7188 34.6264C78.1354 33.7789 78.7131 33.1207 79.4517 32.652C80.1951 32.1832 81.0592 31.9489 82.044 31.9489C83.0289 31.9489 83.8906 32.1832 84.6293 32.652C85.3726 33.1207 85.9503 33.7789 86.3622 34.6264C86.7789 35.474 86.9872 36.4659 86.9872 37.6023C86.9872 38.7292 86.7789 39.714 86.3622 40.5568C85.9503 41.3996 85.3726 42.0554 84.6293 42.5241C83.8906 42.9929 83.0289 43.2273 82.044 43.2273ZM82.044 41.7216C82.7921 41.7216 83.4077 41.5298 83.8906 41.1463C84.3736 40.7628 84.7311 40.2585 84.9631 39.6335C85.1951 39.0085 85.3111 38.3314 85.3111 37.6023C85.3111 36.8731 85.1951 36.1937 84.9631 35.5639C84.7311 34.9342 84.3736 34.4252 83.8906 34.0369C83.4077 33.6487 82.7921 33.4545 82.044 33.4545C81.2959 33.4545 80.6804 33.6487 80.1974 34.0369C79.7145 34.4252 79.357 34.9342 79.125 35.5639C78.893 36.1937 78.777 36.8731 78.777 37.6023C78.777 38.3314 78.893 39.0085 79.125 39.6335C79.357 40.2585 79.7145 40.7628 80.1974 41.1463C80.6804 41.5298 81.2959 41.7216 82.044 41.7216ZM91.2219 28.4545V43H89.5458V28.4545H91.2219ZM98.4112 43.2273C97.5021 43.2273 96.6996 42.9976 96.0036 42.5384C95.3075 42.0743 94.763 41.4209 94.37 40.5781C93.977 39.7306 93.7805 38.7292 93.7805 37.5739C93.7805 36.428 93.977 35.4337 94.37 34.5909C94.763 33.7481 95.3099 33.0971 96.0107 32.6378C96.7114 32.1785 97.5211 31.9489 98.4396 31.9489C99.1499 31.9489 99.7109 32.0672 100.123 32.304C100.54 32.536 100.857 32.8011 101.075 33.0994C101.297 33.393 101.47 33.6345 101.593 33.8239H101.735V28.4545H103.411V43H101.792V41.3239H101.593C101.47 41.5227 101.295 41.7737 101.067 42.0767C100.84 42.375 100.516 42.6425 100.094 42.8793C99.6731 43.1113 99.112 43.2273 98.4112 43.2273ZM98.6385 41.7216C99.3108 41.7216 99.879 41.5464 100.343 41.196C100.807 40.8409 101.16 40.3509 101.401 39.7259C101.643 39.0961 101.763 38.3693 101.763 37.5455C101.763 36.7311 101.645 36.0185 101.408 35.4077C101.172 34.7921 100.821 34.3139 100.357 33.973C99.8932 33.6274 99.3203 33.4545 98.6385 33.4545C97.9283 33.4545 97.3364 33.6368 96.8629 34.0014C96.3942 34.3613 96.0414 34.8513 95.8047 35.4716C95.5727 36.0871 95.4567 36.7784 95.4567 37.5455C95.4567 38.322 95.575 39.0275 95.8118 39.6619C96.0533 40.2917 96.4084 40.7936 96.8771 41.1676C97.3506 41.5369 97.9377 41.7216 98.6385 41.7216ZM111.288 43.2273C110.237 43.2273 109.33 42.9953 108.567 42.5312C107.81 42.0625 107.225 41.4091 106.813 40.571C106.406 39.7282 106.202 38.7481 106.202 37.6307C106.202 36.5133 106.406 35.5284 106.813 34.6761C107.225 33.8191 107.798 33.1515 108.532 32.6733C109.271 32.1903 110.132 31.9489 111.117 31.9489C111.685 31.9489 112.246 32.0436 112.8 32.233C113.354 32.4223 113.859 32.7301 114.313 33.1562C114.768 33.5777 115.13 34.1364 115.4 34.8324C115.67 35.5284 115.805 36.3854 115.805 37.4034V38.1136H107.396V36.6648H114.1C114.1 36.0492 113.977 35.5 113.731 35.017C113.489 34.5341 113.144 34.1529 112.694 33.8736C112.249 33.5942 111.723 33.4545 111.117 33.4545C110.45 33.4545 109.872 33.6203 109.384 33.9517C108.901 34.2784 108.53 34.7045 108.269 35.2301C108.009 35.7557 107.879 36.3191 107.879 36.9205V37.8864C107.879 38.7102 108.021 39.4086 108.305 39.9815C108.594 40.5497 108.994 40.983 109.505 41.2812C110.016 41.5748 110.611 41.7216 111.288 41.7216C111.728 41.7216 112.126 41.66 112.481 41.5369C112.841 41.4091 113.151 41.2197 113.411 40.9688C113.672 40.7131 113.873 40.3958 114.015 40.017L115.634 40.4716C115.464 41.0208 115.177 41.5038 114.775 41.9205C114.372 42.3324 113.875 42.6544 113.283 42.8864C112.692 43.1136 112.026 43.2273 111.288 43.2273ZM118.354 43V32.0909H119.974V33.7386H120.087C120.286 33.1989 120.646 32.7609 121.167 32.4247C121.688 32.0885 122.275 31.9205 122.928 31.9205C123.051 31.9205 123.205 31.9228 123.39 31.9276C123.575 31.9323 123.714 31.9394 123.809 31.9489V33.6534C123.752 33.6392 123.622 33.6179 123.418 33.5895C123.219 33.5563 123.009 33.5398 122.786 33.5398C122.256 33.5398 121.782 33.651 121.366 33.8736C120.954 34.0914 120.627 34.3944 120.386 34.7827C120.149 35.1662 120.031 35.6042 120.031 36.0966V43H118.354Z" fill="white"/>
<path d="M37.6051 77L31.6392 55.1818H34.3239L38.8835 72.9517H39.0966L43.7415 55.1818H46.7244L51.3693 72.9517H51.5824L56.142 55.1818H58.8267L52.8608 77H50.1335L45.3182 59.6136H45.1477L40.3324 77H37.6051ZM61.3942 77V75.0824L73.1555 57.5256H61.2663V55.1818H76.3089V57.0994L64.5476 74.6562H76.4368V77H61.3942ZM87.6016 77H80.8686V55.1818H87.8999C90.0163 55.1818 91.8274 55.6186 93.3331 56.4922C94.8388 57.3587 95.9929 58.6051 96.7955 60.2315C97.598 61.8509 97.9993 63.7898 97.9993 66.0483C97.9993 68.321 97.5945 70.2777 96.7848 71.9183C95.9751 73.5518 94.7962 74.8089 93.2479 75.6896C91.6996 76.5632 89.8175 77 87.6016 77ZM83.5107 74.6562H87.4311C89.2351 74.6562 90.7301 74.3082 91.9162 73.6122C93.1023 72.9162 93.9865 71.9254 94.5689 70.6399C95.1513 69.3544 95.4425 67.8239 95.4425 66.0483C95.4425 64.2869 95.1548 62.7706 94.5795 61.4993C94.0043 60.2209 93.1449 59.2408 92.0014 58.5589C90.858 57.87 89.4339 57.5256 87.7294 57.5256H83.5107V74.6562Z" fill="white"/>
<path d="M162.938 57.4375C161.625 57.4167 160.313 57.1667 159 56.6875C157.688 56.2083 156.49 55.401 155.406 54.2656C154.323 53.1198 153.453 51.5729 152.797 49.625C152.141 47.6667 151.812 45.2083 151.812 42.25C151.812 39.4167 152.078 36.9062 152.609 34.7187C153.141 32.5208 153.911 30.6719 154.922 29.1719C155.932 27.6615 157.151 26.5156 158.578 25.7344C160.016 24.9531 161.635 24.5625 163.438 24.5625C165.229 24.5625 166.823 24.9219 168.219 25.6406C169.625 26.349 170.771 27.3385 171.656 28.6094C172.542 29.8802 173.115 31.3437 173.375 33H169.563C169.208 31.5625 168.521 30.3698 167.5 29.4219C166.479 28.474 165.125 28 163.438 28C160.958 28 159.005 29.0781 157.578 31.2344C156.161 33.3906 155.448 36.4167 155.438 40.3125H155.688C156.271 39.4271 156.964 38.6719 157.766 38.0469C158.578 37.4115 159.474 36.9219 160.453 36.5781C161.432 36.2344 162.469 36.0625 163.562 36.0625C165.396 36.0625 167.073 36.5208 168.594 37.4375C170.115 38.3437 171.333 39.599 172.25 41.2031C173.167 42.7969 173.625 44.625 173.625 46.6875C173.625 48.6667 173.182 50.4792 172.297 52.125C171.411 53.7604 170.167 55.0625 168.563 56.0312C166.969 56.9896 165.094 57.4583 162.938 57.4375ZM162.938 54C164.25 54 165.427 53.6719 166.469 53.0156C167.521 52.3594 168.349 51.4792 168.953 50.375C169.568 49.2708 169.875 48.0417 169.875 46.6875C169.875 45.3646 169.578 44.1615 168.984 43.0781C168.401 41.9844 167.594 41.1146 166.563 40.4687C165.542 39.8229 164.375 39.5 163.063 39.5C162.073 39.5 161.151 39.6979 160.297 40.0937C159.443 40.4792 158.693 41.0104 158.047 41.6875C157.411 42.3646 156.911 43.1406 156.547 44.0156C156.182 44.8802 156 45.7917 156 46.75C156 48.0208 156.297 49.2083 156.891 50.3125C157.495 51.4167 158.318 52.3073 159.359 52.9844C160.411 53.6615 161.604 54 162.938 54ZM190.207 57.4375C187.853 57.4375 185.848 56.7969 184.191 55.5156C182.535 54.224 181.27 52.3542 180.395 49.9062C179.52 47.4479 179.082 44.4792 179.082 41C179.082 37.5417 179.52 34.5885 180.395 32.1406C181.28 29.6823 182.551 27.8073 184.207 26.5156C185.874 25.2135 187.874 24.5625 190.207 24.5625C192.54 24.5625 194.535 25.2135 196.191 26.5156C197.858 27.8073 199.129 29.6823 200.004 32.1406C200.889 34.5885 201.332 37.5417 201.332 41C201.332 44.4792 200.895 47.4479 200.02 49.9062C199.145 52.3542 197.879 54.224 196.223 55.5156C194.566 56.7969 192.561 57.4375 190.207 57.4375ZM190.207 54C192.54 54 194.353 52.875 195.645 50.625C196.936 48.375 197.582 45.1667 197.582 41C197.582 38.2292 197.285 35.8698 196.691 33.9219C196.108 31.974 195.264 30.4896 194.16 29.4687C193.066 28.4479 191.749 27.9375 190.207 27.9375C187.895 27.9375 186.087 29.0781 184.785 31.3594C183.483 33.6302 182.832 36.8437 182.832 41C182.832 43.7708 183.124 46.125 183.707 48.0625C184.29 50 185.129 51.474 186.223 52.4844C187.327 53.4948 188.655 54 190.207 54ZM217.895 57.4375C216.582 57.4167 215.27 57.1667 213.957 56.6875C212.645 56.2083 211.447 55.401 210.363 54.2656C209.28 53.1198 208.41 51.5729 207.754 49.625C207.098 47.6667 206.77 45.2083 206.77 42.25C206.77 39.4167 207.035 36.9062 207.566 34.7187C208.098 32.5208 208.868 30.6719 209.879 29.1719C210.889 27.6615 212.108 26.5156 213.535 25.7344C214.973 24.9531 216.592 24.5625 218.395 24.5625C220.186 24.5625 221.78 24.9219 223.176 25.6406C224.582 26.349 225.728 27.3385 226.613 28.6094C227.499 29.8802 228.072 31.3437 228.332 33H224.52C224.165 31.5625 223.478 30.3698 222.457 29.4219C221.436 28.474 220.082 28 218.395 28C215.915 28 213.962 29.0781 212.535 31.2344C211.118 33.3906 210.405 36.4167 210.395 40.3125H210.645C211.228 39.4271 211.921 38.6719 212.723 38.0469C213.535 37.4115 214.431 36.9219 215.41 36.5781C216.389 36.2344 217.426 36.0625 218.52 36.0625C220.353 36.0625 222.03 36.5208 223.551 37.4375C225.072 38.3437 226.29 39.599 227.207 41.2031C228.124 42.7969 228.582 44.625 228.582 46.6875C228.582 48.6667 228.139 50.4792 227.254 52.125C226.368 53.7604 225.124 55.0625 223.52 56.0312C221.926 56.9896 220.051 57.4583 217.895 57.4375ZM217.895 54C219.207 54 220.384 53.6719 221.426 53.0156C222.478 52.3594 223.306 51.4792 223.91 50.375C224.525 49.2708 224.832 48.0417 224.832 46.6875C224.832 45.3646 224.535 44.1615 223.941 43.0781C223.358 41.9844 222.551 41.1146 221.52 40.4687C220.499 39.8229 219.332 39.5 218.02 39.5C217.03 39.5 216.108 39.6979 215.254 40.0937C214.4 40.4792 213.65 41.0104 213.004 41.6875C212.368 42.3646 211.868 43.1406 211.504 44.0156C211.139 44.8802 210.957 45.7917 210.957 46.75C210.957 48.0208 211.254 49.2083 211.848 50.3125C212.452 51.4167 213.275 52.3073 214.316 52.9844C215.368 53.6615 216.561 54 217.895 54Z" fill="white"/>
</svg>
